<?xml version="1.0" encoding="utf-8"?>
<!-- Generator: Adobe Illustrator 16.0.0, SVG Export Plug-In . SVG Version: 6.00 Build 0)  -->
<!DOCTYPE svg PUBLIC "-//W3C//DTD SVG 1.1//EN" "http://www.w3.org/Graphics/SVG/1.1/DTD/svg11.dtd">
<svg version="1.1" id="Layer_1" xmlns="http://www.w3.org/2000/svg" xmlns:xlink="http://www.w3.org/1999/xlink" x="0px" y="0px"
	 width="298.817px" height="77.002px" viewBox="0 0 298.817 77.002" enable-background="new 0 0 298.817 77.002"
	 xml:space="preserve">
<g>
	<g>
		<path fill="#FAA93C" d="M32.028,48.897L32.028,48.897c4.024-2.635,7.492-9.759,7.492-9.759s0.006,0.02,0.009,0.031
			c0.214,1.43,0.874,3.091,2.415,4.749c0.053,0.063,0.105,0.121,0.158,0.179c0.012,0.013,0.021,0.024,0.033,0.037
			c0.605,0.663,1.121,1.039,1.121,1.039l19.485,15.11l-9.45,9.618L32.028,48.897z"/>
		<path fill="#FAA93C" d="M60.009,48.897L60.009,48.897c-4.024-2.635-7.492-9.759-7.492-9.759s-0.006,0.02-0.009,0.031
			c-0.214,1.43-0.874,3.091-2.415,4.749c-0.053,0.063-0.105,0.121-0.158,0.179c-0.012,0.013-0.021,0.024-0.033,0.037
			c-0.605,0.663-1.121,1.039-1.121,1.039l-19.485,15.11l9.45,9.618L60.009,48.897z"/>
		<path fill="#EB185A" d="M31.995,48.917c0.003,0.003,0.005,0.005,0.008,0.008l0.025-0.027l21.263,21.005l-7.272,7.1L19.548,50.735
			C19.548,50.735,24.389,53.654,31.995,48.917z"/>
		<path fill="#EB185A" d="M60.042,48.917c-0.003,0.003-0.005,0.005-0.008,0.008l-0.025-0.027L38.747,69.902l7.271,7.1l26.471-26.267
			C72.489,50.735,67.648,53.654,60.042,48.917z"/>
		<path fill="#28A4A9" d="M20.438,26.813c-0.561,0.592-1.074,1.212-1.538,1.839c-1.425,1.066-3.462,1.114-5.005-0.035l-8.92-6.652
			c-1.865-1.391-2.285-3.984-0.938-5.791l0.49-0.657c1.348-1.807,3.953-2.145,5.818-0.753l8.92,6.651
			C21.003,22.709,21.467,25.038,20.438,26.813z"/>
		<path fill="#28A4A9" d="M0.652,25.206l0.417-0.582c1.148-1.602,3.419-1.938,5.072-0.753l7.901,5.669
			c1.653,1.186,2.062,3.444,0.913,5.045l-0.417,0.582c-1.148,1.602-3.419,1.938-5.072,0.753l-2.054-1.474l0,0l-1.296-0.931
			l-0.521-0.373l0,0l-3.616-2.594l0,0l-0.414-0.298C-0.088,29.065-0.497,26.807,0.652,25.206z"/>
		<path fill="#445772" d="M19.53,20.534c-0.763-0.851-1.322-1.991-1.433-3.244l-0.026-0.299l5.331-5.134l-7.124-5.29
			c-1.867-1.386-4.51-0.987-5.905,0.891L9.866,8.141c-1.395,1.878-1.012,4.524,0.854,5.91l8.924,6.628
			c0.023,0.017,0.048,0.03,0.071,0.047C19.654,20.662,19.59,20.601,19.53,20.534z"/>
		<path fill="#445772" d="M19.646,8.165l4.34,3.131l4.873-4.692c0.08-0.106,0.253-0.311,0.538-0.52
			c0.373-0.275,0.957-0.55,1.714-0.549c0.17,0,0.349,0.02,0.533,0.048l-6.666-4.809c-1.843-1.33-4.422-0.904-5.76,0.95l-0.486,0.674
			C17.393,4.254,17.802,6.835,19.646,8.165z"/>
		<path fill="#445772" d="M19.548,50.735c0,0-3.922-4.311-6.754-6.279c-2.831-1.968-4.837-3.926-6.865-9.037
			c0,0,0.958,0.186,5.866,2.589c2.19,1.072,4.644,0.225,5.768-2.903c0.808-2.248,1.095-4.679,3.935-8.307
			c0,0-1.33,6.632,2.11,10.709c1.243,2.945,3.663,7.083,8.387,11.41C24.389,53.654,19.548,50.735,19.548,50.735z"/>
		<path fill="#28A4A9" d="M32.028,48.897l0.025-0.027c-5.023-4.599-7.449-8.994-8.611-11.951c-0.838-2.732-3.31-13.352,7.011-18.316
			l-0.758-1.33c0,0-4.774,3.986-7.289,4.072c-1.629,0.057-3.49-1.883-3.683-4.109L29.333,7.018c0,0,1.483-2.253,4.831,0.557
			s8.371,7.023,8.371,7.023s2.598,2.246,1.865,5.063l-4.394,15.436c0,0-0.829,1.72-0.478,4.074
			c-0.003-0.012-0.009-0.031-0.009-0.031S36.052,46.263,32.028,48.897z"/>
		<path fill="#28A4A9" d="M71.477,26.813c0.561,0.592,1.074,1.212,1.537,1.839c1.425,1.066,3.463,1.114,5.005-0.035l8.92-6.652
			c1.866-1.391,2.285-3.984,0.938-5.791l-0.49-0.657c-1.348-1.807-3.953-2.145-5.818-0.753l-8.92,6.651
			C70.912,22.709,70.448,25.038,71.477,26.813z"/>
		<path fill="#28A4A9" d="M91.263,25.206l-0.417-0.582c-1.148-1.602-3.419-1.938-5.072-0.753l-7.902,5.669
			c-1.653,1.186-2.062,3.444-0.913,5.045l0.417,0.582c1.148,1.602,3.419,1.938,5.072,0.753l2.054-1.474l0,0l1.296-0.931l0.521-0.373
			l0,0l3.616-2.594l0,0l0.414-0.298C92.003,29.065,92.412,26.807,91.263,25.206z"/>
		<path fill="#445772" d="M72.385,20.534c0.763-0.851,1.322-1.991,1.433-3.244l0.026-0.299l-5.331-5.134l7.124-5.29
			c1.867-1.386,4.51-0.987,5.905,0.891l0.506,0.683c1.395,1.878,1.012,4.524-0.854,5.91l-8.924,6.628
			c-0.023,0.017-0.048,0.03-0.071,0.047C72.261,20.662,72.325,20.601,72.385,20.534z"/>
		<path fill="#445772" d="M72.269,8.165l-4.34,3.131l-4.873-4.692c-0.08-0.106-0.253-0.311-0.538-0.52
			c-0.373-0.275-0.957-0.55-1.714-0.549c-0.17,0-0.349,0.02-0.533,0.048l6.666-4.809c1.843-1.33,4.422-0.904,5.76,0.95l0.486,0.674
			C74.522,4.254,74.113,6.835,72.269,8.165z"/>
		<path fill="#445772" d="M72.367,50.735c0,0,3.922-4.311,6.754-6.279c2.831-1.968,4.837-3.926,6.865-9.037
			c0,0-0.958,0.186-5.867,2.589c-2.19,1.072-4.644,0.225-5.768-2.903c-0.808-2.248-1.095-4.679-3.935-8.307
			c0,0,1.33,6.632-2.11,10.709c-1.242,2.945-3.663,7.083-8.387,11.41C67.526,53.654,72.367,50.735,72.367,50.735z"/>
		<path fill="#28A4A9" d="M59.887,48.897l-0.025-0.027c5.023-4.599,7.449-8.994,8.611-11.951c0.838-2.732,3.31-13.352-7.01-18.316
			l0.757-1.33c0,0,4.774,3.986,7.289,4.072c1.63,0.057,3.49-1.883,3.684-4.109L62.582,7.018c0,0-1.483-2.253-4.831,0.557
			s-8.37,7.023-8.37,7.023s-2.599,2.246-1.866,5.063l4.394,15.436c0,0,0.829,1.72,0.478,4.074c0.003-0.012,0.009-0.031,0.009-0.031
			S55.863,46.263,59.887,48.897z"/>
	</g>
	<g>
		<path fill="#FFFFFF" d="M122.721,48.426c0,1.539-0.28,2.807-0.839,3.811c-0.559,0.998-1.326,1.789-2.305,2.373
			c-0.979,0.583-2.142,0.988-3.492,1.22c-1.351,0.236-2.816,0.353-4.403,0.353c-1.254,0-2.388-0.049-3.386-0.14
			c-1.003-0.092-2.083-0.213-3.251-0.348V30.72c0.888-0.14,1.853-0.256,2.904-0.348c1.047-0.096,2.267-0.14,3.666-0.14
			c1.327,0,2.566,0.111,3.719,0.328c1.153,0.222,2.161,0.593,3.02,1.119c0.863,0.525,1.543,1.225,2.045,2.098s0.752,1.973,0.752,3.3
			c0,1.095-0.246,2.088-0.733,2.985c-0.492,0.896-1.109,1.587-1.852,2.078c0.535,0.208,1.051,0.482,1.553,0.82
			c0.502,0.338,0.945,0.758,1.327,1.259c0.386,0.502,0.694,1.1,0.926,1.799C122.6,46.714,122.721,47.519,122.721,48.426z
			 M111.087,40.255h0.979c1.003,0,1.78-0.202,2.339-0.612c0.559-0.405,0.839-1.109,0.839-2.112c0-0.487-0.101-0.897-0.299-1.221
			c-0.198-0.328-0.449-0.583-0.748-0.771c-0.304-0.184-0.642-0.313-1.013-0.381c-0.376-0.072-0.733-0.106-1.085-0.106
			c-0.14,0-0.309,0-0.506,0s-0.367,0.01-0.506,0.034V40.255z M111.087,45.214v5.869c0.164,0.024,0.366,0.039,0.612,0.054
			c0.246,0.01,0.564,0.014,0.96,0.014c0.444,0,0.892-0.043,1.346-0.14c0.453-0.092,0.868-0.251,1.239-0.473
			c0.372-0.217,0.67-0.521,0.893-0.906c0.217-0.386,0.328-0.868,0.328-1.447c0-1.119-0.367-1.896-1.1-2.325
			c-0.733-0.429-1.683-0.646-2.846-0.646H111.087z"/>
		<path fill="#FFFFFF" d="M129.005,55.97c-0.863,0-1.9-0.102-3.111-0.313V30.72c0.632-0.092,1.201-0.164,1.712-0.212
			c0.511-0.044,0.969-0.067,1.365-0.067c0.42,0,0.888,0.023,1.413,0.067c0.526,0.048,1.09,0.12,1.693,0.212v24.937
			C130.843,55.868,129.821,55.97,129.005,55.97z"/>
		<path fill="#FFFFFF" d="M149.335,42.175c0.627-0.092,1.187-0.164,1.673-0.207c0.492-0.049,0.945-0.072,1.365-0.072
			c0.396,0,0.873,0.023,1.433,0.072c0.56,0.043,1.104,0.115,1.64,0.207v12.714c-1.374,0.512-2.729,0.85-4.07,1.013
			c-1.336,0.164-2.484,0.246-3.439,0.246c-2.05,0-3.839-0.323-5.378-0.96c-1.539-0.641-2.821-1.533-3.858-2.672
			c-1.037-1.143-1.813-2.503-2.325-4.09c-0.511-1.582-0.767-3.304-0.767-5.166c0-1.866,0.265-3.593,0.801-5.189
			c0.535-1.592,1.312-2.971,2.325-4.139c1.013-1.162,2.262-2.068,3.752-2.725c1.491-0.651,3.179-0.975,5.064-0.975
			c1.119,0,2.185,0.082,3.198,0.241c1.013,0.164,2.127,0.502,3.337,1.013c-0.048,0.955-0.222,1.886-0.525,2.798
			c-0.304,0.906-0.617,1.674-0.945,2.301c-0.463-0.159-0.888-0.299-1.273-0.415c-0.386-0.12-0.752-0.212-1.1-0.279
			c-0.347-0.072-0.699-0.126-1.047-0.159c-0.352-0.034-0.723-0.054-1.119-0.054c-1.886,0-3.343,0.637-4.365,1.905
			c-1.027,1.269-1.539,3.159-1.539,5.677c0,2.489,0.502,4.346,1.505,5.571c0.999,1.22,2.489,1.833,4.471,1.833
			c0.439,0,0.834-0.034,1.187-0.106V42.175z"/>
		<path fill="#FFFFFF" d="M164.596,33.759h-6.53c-0.048-0.231-0.082-0.487-0.106-0.768c-0.023-0.279-0.033-0.55-0.033-0.806
			c0-0.255,0.01-0.516,0.033-0.786c0.024-0.265,0.059-0.516,0.106-0.752h16.626c0.048,0.236,0.082,0.478,0.105,0.737
			c0.02,0.256,0.034,0.512,0.034,0.768s-0.015,0.53-0.034,0.82c-0.023,0.289-0.058,0.555-0.105,0.786h-6.531v22.003
			c-0.535,0.067-1.118,0.106-1.746,0.106c-0.65,0-1.259-0.039-1.818-0.106V33.759z"/>
		<path fill="#FFFFFF" d="M178.709,30.613c0.511-0.043,0.975-0.092,1.394-0.14c0.42-0.043,0.835-0.087,1.24-0.12
			c0.409-0.034,0.834-0.063,1.277-0.087c0.439-0.024,0.932-0.034,1.467-0.034c1.187,0,2.363,0.116,3.525,0.348
			c1.168,0.231,2.199,0.642,3.111,1.22c0.906,0.584,1.645,1.37,2.219,2.358c0.569,0.989,0.854,2.243,0.854,3.758
			c0,0.906-0.149,1.731-0.453,2.479c-0.304,0.742-0.689,1.408-1.153,1.991c-0.468,0.579-0.993,1.086-1.591,1.52
			c-0.594,0.43-1.168,0.781-1.728,1.062l-0.419,0.212l7.302,10.582c-0.632,0.067-1.341,0.106-2.132,0.106
			c-0.632,0-1.259-0.039-1.886-0.106l-8.035-11.629v-0.14l0.279-0.072c0.632-0.164,1.293-0.381,1.992-0.661
			c0.699-0.279,1.346-0.646,1.939-1.104c0.593-0.453,1.085-0.998,1.485-1.64c0.396-0.642,0.593-1.413,0.593-2.32
			c0-1.678-0.497-2.923-1.485-3.737c-0.988-0.815-2.325-1.226-3.998-1.226c-0.396,0-0.763,0.015-1.1,0.039
			c-0.338,0.019-0.719,0.058-1.139,0.101v22.39c-0.256,0.024-0.54,0.049-0.854,0.067c-0.313,0.024-0.613,0.039-0.893,0.039
			s-0.579-0.01-0.907-0.02c-0.327-0.01-0.627-0.038-0.906-0.087V30.613z"/>
		<path fill="#FFFFFF" d="M199.487,30.647c0.28-0.044,0.569-0.077,0.873-0.102s0.607-0.038,0.911-0.038
			c0.3,0,0.604,0.014,0.907,0.038s0.594,0.058,0.873,0.102v25.114c-0.279,0.049-0.564,0.082-0.858,0.106
			c-0.289,0.02-0.599,0.033-0.922,0.033c-0.304,0-0.612-0.014-0.926-0.033c-0.318-0.024-0.603-0.058-0.858-0.106V30.647z"/>
		<path fill="#FFFFFF" d="M208.955,30.647c0.555-0.067,1.163-0.102,1.813-0.102c0.627,0,1.211,0.034,1.746,0.102V44.9
			c0,1.441,0.092,2.677,0.28,3.704c0.188,1.022,0.487,1.856,0.906,2.493c0.42,0.642,0.975,1.114,1.659,1.418
			c0.69,0.3,1.534,0.454,2.532,0.454c1.004,0,1.843-0.154,2.518-0.454c0.676-0.304,1.221-0.776,1.641-1.418
			c0.419-0.637,0.724-1.471,0.906-2.493c0.188-1.027,0.28-2.263,0.28-3.704V30.647c0.583-0.067,1.177-0.102,1.784-0.102
			c0.651,0,1.254,0.034,1.813,0.102v14.88c0,1.678-0.154,3.179-0.473,4.505c-0.313,1.331-0.824,2.445-1.533,3.356
			c-0.714,0.907-1.636,1.602-2.778,2.074c-1.144,0.478-2.527,0.719-4.158,0.719c-1.63,0-3.015-0.241-4.152-0.719
			c-1.144-0.473-2.069-1.167-2.778-2.074c-0.709-0.911-1.226-2.025-1.539-3.356c-0.313-1.326-0.468-2.827-0.468-4.505V30.647z"/>
		<path fill="#FFFFFF" d="M233.434,30.647c0.279-0.044,0.598-0.077,0.96-0.102c0.361-0.024,0.704-0.038,1.032-0.038
			c0.322,0,0.68,0.014,1.065,0.038c0.381,0.024,0.704,0.058,0.96,0.102l6.497,15.719l6.53-15.719
			c0.231-0.044,0.521-0.077,0.873-0.102c0.348-0.024,0.685-0.038,1.013-0.038c0.304,0,0.642,0.014,1.013,0.038
			c0.372,0.024,0.686,0.058,0.941,0.102l1.19,25.114c-0.279,0.049-0.563,0.082-0.858,0.106c-0.289,0.02-0.588,0.033-0.887,0.033
			c-0.305,0-0.604-0.014-0.893-0.033c-0.294-0.024-0.564-0.058-0.82-0.106l-0.806-19.524l-6.145,14.32
			c-0.468,0.072-0.945,0.106-1.433,0.106c-0.443,0-0.888-0.034-1.326-0.106l-5.938-14.427l-0.806,19.631
			c-0.255,0.049-0.525,0.082-0.805,0.106c-0.275,0.02-0.546,0.033-0.801,0.033c-0.305,0-0.594-0.014-0.873-0.033
			c-0.28-0.024-0.55-0.058-0.806-0.106L233.434,30.647z"/>
		<path fill="#FFFFFF" d="M261.234,30.613c0.353-0.043,0.762-0.092,1.239-0.14c0.478-0.043,0.979-0.087,1.505-0.12
			c0.521-0.034,1.047-0.063,1.572-0.087c0.521-0.024,1.027-0.034,1.52-0.034c1.278,0,2.494,0.126,3.646,0.381
			c1.153,0.256,2.166,0.699,3.039,1.327c0.873,0.632,1.567,1.461,2.078,2.498c0.512,1.037,0.768,2.334,0.768,3.897
			c0,1.63-0.271,2.985-0.82,4.065c-0.545,1.085-1.269,1.954-2.166,2.604c-0.896,0.651-1.914,1.109-3.053,1.38
			c-1.144,0.265-2.306,0.4-3.492,0.4c-0.443,0-0.834-0.005-1.172-0.02c-0.338-0.01-0.704-0.039-1.1-0.087v9.082
			c-0.56,0.067-1.152,0.106-1.78,0.106c-0.279,0-0.578-0.01-0.892-0.02s-0.613-0.038-0.893-0.087V30.613z M264.799,43.573
			c0.371,0.044,0.699,0.082,0.979,0.102c0.279,0.024,0.685,0.039,1.22,0.039c0.724,0,1.438-0.077,2.146-0.228
			c0.714-0.154,1.346-0.424,1.905-0.824c0.56-0.396,1.008-0.936,1.346-1.621c0.338-0.689,0.506-1.577,0.506-2.672
			c0-0.955-0.145-1.76-0.438-2.411c-0.289-0.651-0.689-1.177-1.201-1.572c-0.516-0.396-1.133-0.676-1.852-0.84
			c-0.724-0.159-1.505-0.241-2.34-0.241c-0.863,0-1.62,0.034-2.271,0.106V43.573z"/>
		<path fill="#FFFFFF" d="M281.005,30.647c0.279-0.044,0.569-0.077,0.873-0.102s0.607-0.038,0.911-0.038
			c0.3,0,0.604,0.014,0.907,0.038s0.593,0.058,0.873,0.102v10.341h10.688V30.647c0.255-0.044,0.535-0.077,0.839-0.102
			c0.299-0.024,0.603-0.038,0.907-0.038c0.299,0,0.612,0.014,0.926,0.038s0.607,0.058,0.888,0.102v25.114
			c-0.256,0.049-0.536,0.082-0.835,0.106c-0.304,0.02-0.617,0.033-0.945,0.033c-0.304,0-0.612-0.014-0.926-0.033
			c-0.313-0.024-0.599-0.058-0.854-0.106V44.133h-10.688v11.629c-0.28,0.049-0.564,0.082-0.858,0.106
			c-0.29,0.02-0.599,0.033-0.922,0.033c-0.304,0-0.612-0.014-0.926-0.033c-0.318-0.024-0.603-0.058-0.858-0.106V30.647z"/>
	</g>
</g>
<g>
	<path fill="#FAA93C" d="M120.097-368.06L120.097-368.06c8.274-5.418,15.403-20.064,15.403-20.064s0.012,0.041,0.02,0.064
		c0.439,2.939,1.796,6.355,4.965,9.764c0.109,0.127,0.217,0.249,0.324,0.368c0.024,0.025,0.043,0.05,0.067,0.075
		c1.245,1.363,2.305,2.137,2.305,2.137l40.061,31.067l-19.43,19.774L120.097-368.06z"/>
	<path fill="#FAA93C" d="M177.627-368.06L177.627-368.06c-8.273-5.418-15.403-20.064-15.403-20.064s-0.012,0.041-0.02,0.064
		c-0.439,2.939-1.796,6.355-4.966,9.764c-0.108,0.127-0.216,0.249-0.323,0.368c-0.024,0.025-0.043,0.05-0.067,0.075
		c-1.245,1.363-2.305,2.137-2.305,2.137l-40.061,31.067l19.43,19.774L177.627-368.06z"/>
	<path fill="#EB185A" d="M120.03-368.019c0.006,0.005,0.011,0.01,0.016,0.016l0.051-0.056l43.715,43.185l-14.95,14.597
		l-54.424-54.004C94.438-364.282,104.392-358.28,120.03-368.019z"/>
	<path fill="#EB185A" d="M177.694-368.019c-0.006,0.005-0.011,0.01-0.017,0.016l-0.051-0.056l-43.715,43.185l14.951,14.597
		l54.423-54.004C203.285-364.282,193.332-358.28,177.694-368.019z"/>
	<path fill="#28A4A9" d="M96.269-413.466c-1.153,1.216-2.208,2.491-3.161,3.781c-2.93,2.192-7.119,2.291-10.29-0.073l-18.339-13.676
		c-3.835-2.86-4.699-8.192-1.927-11.908l1.007-1.35c2.771-3.716,8.127-4.41,11.962-1.549l18.339,13.676
		C97.431-421.903,98.384-417.115,96.269-413.466z"/>
	<path fill="#28A4A9" d="M55.588-416.77l0.858-1.196c2.361-3.292,7.03-3.984,10.428-1.547l16.246,11.654
		c3.398,2.438,4.238,7.082,1.877,10.374l-0.858,1.196c-2.361,3.292-7.03,3.984-10.428,1.547l-4.223-3.029l0,0l-2.666-1.912
		l-1.07-0.768l0,0l-7.435-5.333l0,0l-0.852-0.611C54.067-408.833,53.227-413.478,55.588-416.77z"/>
	<path fill="#445772" d="M94.401-426.375c-1.568-1.748-2.717-4.092-2.945-6.67l-0.054-0.614l10.96-10.553l-14.647-10.877
		c-3.838-2.85-9.273-2.03-12.141,1.832l-1.042,1.403c-2.868,3.861-2.081,9.302,1.757,12.152l18.349,13.625
		c0.047,0.035,0.098,0.062,0.146,0.096C94.656-426.111,94.525-426.238,94.401-426.375z"/>
	<path fill="#445772" d="M94.64-451.805l8.923,6.437l10.019-9.647c0.165-0.218,0.52-0.64,1.105-1.069
		c0.767-0.565,1.967-1.13,3.524-1.127c0.35,0,0.718,0.039,1.095,0.098L105.601-467c-3.79-2.734-9.092-1.859-11.843,1.954l-1,1.386
		C90.007-459.847,90.85-454.54,94.64-451.805z"/>
	<path fill="#445772" d="M94.438-364.282c0,0-8.065-8.862-13.886-12.909c-5.821-4.046-9.945-8.072-14.115-18.581
		c0,0,1.97,0.382,12.061,5.322c4.503,2.205,9.548,0.463,11.858-5.97c1.66-4.622,2.25-9.618,8.09-17.077
		c0,0-2.734,13.634,4.339,22.017c2.554,6.055,7.53,14.563,17.243,23.46C104.392-358.28,94.438-364.282,94.438-364.282z"/>
	<path fill="#28A4A9" d="M120.098-368.06l0.051-0.056c-10.326-9.455-15.315-18.491-17.704-24.571
		c-1.723-5.618-6.805-27.451,14.413-37.658l-1.558-2.735c0,0-9.815,8.196-14.985,8.373c-3.351,0.115-7.176-3.872-7.573-8.449
		l21.816-21.007c0,0,3.048-4.632,9.933,1.145c6.883,5.776,17.209,14.44,17.209,14.44s5.342,4.617,3.835,10.408l-9.033,31.734
		c0,0-1.705,3.537-0.982,8.377c-0.007-0.024-0.02-0.064-0.02-0.064S128.371-373.478,120.098-368.06z"/>
	<path fill="#28A4A9" d="M201.203-413.466c1.153,1.216,2.209,2.491,3.161,3.781c2.93,2.192,7.119,2.291,10.29-0.073l18.339-13.676
		c3.836-2.86,4.699-8.192,1.928-11.908l-1.007-1.35c-2.771-3.716-8.127-4.41-11.963-1.549l-18.339,13.676
		C200.042-421.903,199.089-417.115,201.203-413.466z"/>
	<path fill="#28A4A9" d="M241.884-416.77l-0.857-1.196c-2.361-3.292-7.03-3.984-10.429-1.547l-16.245,11.654
		c-3.398,2.438-4.238,7.082-1.877,10.374l0.857,1.196c2.361,3.292,7.03,3.984,10.429,1.547l4.223-3.029l0,0l2.666-1.912l1.07-0.768
		l0,0l7.435-5.333l0,0l0.852-0.611C243.405-408.833,244.245-413.478,241.884-416.77z"/>
	<path fill="#445772" d="M203.071-426.375c1.568-1.748,2.718-4.092,2.946-6.67l0.053-0.614l-10.96-10.553l14.646-10.877
		c3.838-2.85,9.273-2.03,12.141,1.832l1.042,1.403c2.868,3.861,2.081,9.302-1.757,12.152l-18.348,13.625
		c-0.048,0.035-0.099,0.062-0.147,0.096C202.816-426.111,202.948-426.238,203.071-426.375z"/>
	<path fill="#445772" d="M202.833-451.805l-8.923,6.437l-10.02-9.647c-0.164-0.218-0.52-0.64-1.104-1.069
		c-0.767-0.565-1.967-1.13-3.524-1.127c-0.35,0-0.718,0.039-1.095,0.098L191.872-467c3.789-2.734,9.092-1.859,11.843,1.954
		l0.999,1.386C207.465-459.847,206.623-454.54,202.833-451.805z"/>
	<path fill="#445772" d="M203.034-364.282c0,0,8.064-8.862,13.886-12.909c5.821-4.046,9.944-8.072,14.114-18.581
		c0,0-1.97,0.382-12.061,5.322c-4.504,2.205-9.549,0.463-11.859-5.97c-1.659-4.622-2.25-9.618-8.09-17.077
		c0,0,2.734,13.634-4.339,22.017c-2.554,6.055-7.53,14.563-17.243,23.46C193.081-358.28,203.034-364.282,203.034-364.282z"/>
	<path fill="#28A4A9" d="M177.375-368.06l-0.051-0.056c10.326-9.455,15.314-18.491,17.703-24.571
		c1.724-5.618,6.805-27.451-14.413-37.658l1.559-2.735c0,0,9.815,8.196,14.985,8.373c3.351,0.115,7.176-3.872,7.573-8.449
		l-21.816-21.007c0,0-3.049-4.632-9.933,1.145c-6.884,5.776-17.209,14.44-17.209,14.44s-5.343,4.617-3.836,10.408l9.033,31.734
		c0,0,1.705,3.537,0.981,8.377c0.008-0.024,0.02-0.064,0.02-0.064S169.102-373.478,177.375-368.06z"/>
</g>
<g>
	<path fill="#414042" d="M32.863-254.756c0,2.25-0.409,4.106-1.228,5.574c-0.819,1.461-1.94,2.618-3.373,3.472
		c-1.433,0.854-3.133,1.446-5.108,1.785c-1.976,0.346-4.121,0.515-6.442,0.515c-1.835,0-3.493-0.071-4.953-0.205
		c-1.468-0.134-3.048-0.311-4.756-0.508v-36.535c1.298-0.205,2.709-0.374,4.248-0.508c1.531-0.141,3.316-0.205,5.362-0.205
		c1.94,0,3.754,0.162,5.44,0.479c1.687,0.325,3.161,0.868,4.417,1.637c1.263,0.769,2.258,1.792,2.992,3.069
		c0.734,1.277,1.101,2.886,1.101,4.826c0,1.602-0.36,3.055-1.072,4.367c-0.72,1.313-1.623,2.321-2.709,3.041
		c0.783,0.304,1.538,0.706,2.272,1.2c0.734,0.494,1.383,1.107,1.94,1.841c0.564,0.734,1.016,1.609,1.354,2.632
		C32.687-257.261,32.863-256.083,32.863-254.756z M15.845-266.708h1.433c1.467,0,2.604-0.296,3.422-0.896
		c0.818-0.593,1.228-1.623,1.228-3.09c0-0.713-0.148-1.313-0.438-1.785c-0.289-0.48-0.656-0.854-1.094-1.129
		c-0.444-0.268-0.938-0.458-1.481-0.558c-0.55-0.105-1.072-0.155-1.587-0.155c-0.205,0-0.452,0-0.741,0
		c-0.289,0-0.536,0.014-0.741,0.049V-266.708z M15.845-259.455v8.587c0.24,0.035,0.536,0.056,0.896,0.078
		c0.36,0.014,0.826,0.021,1.404,0.021c0.649,0,1.305-0.063,1.969-0.205c0.663-0.134,1.27-0.367,1.813-0.691
		c0.543-0.317,0.981-0.762,1.305-1.327c0.318-0.564,0.48-1.27,0.48-2.117c0-1.637-0.536-2.773-1.609-3.401
		c-1.072-0.628-2.462-0.945-4.163-0.945H15.845z"/>
	<path fill="#414042" d="M42.057-243.721c-1.263,0-2.78-0.148-4.551-0.458v-36.479c0.924-0.134,1.757-0.24,2.505-0.31
		c0.748-0.064,1.418-0.099,1.997-0.099c0.614,0,1.298,0.035,2.067,0.099c0.769,0.07,1.595,0.176,2.477,0.31v36.479
		C44.745-243.869,43.25-243.721,42.057-243.721z"/>
	<path fill="#414042" d="M71.797-263.9c0.917-0.134,1.736-0.24,2.448-0.303c0.72-0.07,1.383-0.106,1.997-0.106
		c0.579,0,1.277,0.036,2.095,0.106c0.819,0.063,1.616,0.169,2.399,0.303v18.599c-2.011,0.748-3.993,1.242-5.955,1.482
		c-1.954,0.24-3.633,0.359-5.031,0.359c-2.999,0-5.616-0.473-7.867-1.404c-2.251-0.938-4.128-2.244-5.645-3.909
		c-1.517-1.672-2.653-3.662-3.401-5.983c-0.748-2.314-1.122-4.833-1.122-7.557c0-2.73,0.388-5.257,1.171-7.592
		c0.783-2.328,1.919-4.346,3.401-6.054c1.481-1.7,3.309-3.027,5.489-3.986c2.18-0.953,4.649-1.425,7.408-1.425
		c1.637,0,3.196,0.12,4.678,0.353c1.481,0.24,3.111,0.734,4.882,1.482c-0.07,1.397-0.324,2.759-0.769,4.092
		c-0.444,1.327-0.903,2.448-1.383,3.366c-0.677-0.233-1.298-0.438-1.863-0.607c-0.564-0.176-1.101-0.311-1.608-0.409
		c-0.508-0.106-1.023-0.184-1.531-0.233c-0.515-0.049-1.059-0.078-1.637-0.078c-2.759,0-4.89,0.932-6.386,2.787
		c-1.503,1.855-2.251,4.622-2.251,8.305c0,3.641,0.734,6.357,2.202,8.149c1.46,1.785,3.641,2.681,6.541,2.681
		c0.642,0,1.221-0.05,1.736-0.155V-263.9z"/>
	<path fill="#414042" d="M94.121-276.212h-9.553c-0.071-0.339-0.12-0.713-0.155-1.122s-0.049-0.804-0.049-1.178
		s0.014-0.755,0.049-1.15c0.035-0.388,0.084-0.755,0.155-1.101h24.321c0.07,0.345,0.12,0.698,0.155,1.079
		c0.028,0.374,0.05,0.748,0.05,1.122s-0.021,0.776-0.05,1.199c-0.035,0.423-0.084,0.812-0.155,1.15h-9.554v32.188
		c-0.783,0.099-1.637,0.155-2.554,0.155c-0.953,0-1.841-0.056-2.66-0.155V-276.212z"/>
	<path fill="#414042" d="M114.767-280.813c0.748-0.063,1.425-0.134,2.039-0.205c0.614-0.063,1.221-0.127,1.813-0.176
		c0.6-0.049,1.221-0.092,1.87-0.127c0.642-0.035,1.362-0.049,2.145-0.049c1.735,0,3.457,0.169,5.157,0.508
		c1.708,0.339,3.218,0.938,4.551,1.785c1.326,0.854,2.406,2.004,3.246,3.45c0.833,1.447,1.249,3.281,1.249,5.497
		c0,1.327-0.219,2.533-0.664,3.626c-0.444,1.087-1.009,2.061-1.686,2.914c-0.685,0.847-1.454,1.587-2.329,2.223
		c-0.868,0.628-1.708,1.143-2.526,1.552l-0.614,0.311l10.682,15.48c-0.924,0.099-1.961,0.155-3.119,0.155
		c-0.924,0-1.841-0.056-2.759-0.155l-11.755-17.011v-0.205l0.409-0.106c0.924-0.24,1.891-0.557,2.914-0.966
		c1.023-0.409,1.969-0.946,2.836-1.616c0.868-0.664,1.588-1.461,2.173-2.399c0.579-0.938,0.868-2.067,0.868-3.394
		c0-2.456-0.727-4.276-2.173-5.468s-3.401-1.792-5.849-1.792c-0.579,0-1.115,0.021-1.609,0.056
		c-0.494,0.028-1.051,0.085-1.665,0.148v32.752c-0.374,0.036-0.791,0.071-1.249,0.099c-0.458,0.035-0.896,0.056-1.305,0.056
		s-0.847-0.014-1.327-0.028c-0.479-0.014-0.917-0.056-1.326-0.127V-280.813z"/>
	<path fill="#414042" d="M145.163-280.763c0.409-0.064,0.833-0.113,1.277-0.148s0.889-0.056,1.333-0.056
		c0.438,0,0.882,0.021,1.327,0.056s0.868,0.084,1.277,0.148v36.739c-0.409,0.071-0.825,0.12-1.256,0.155
		c-0.423,0.028-0.875,0.05-1.348,0.05c-0.444,0-0.896-0.021-1.354-0.05c-0.466-0.035-0.882-0.084-1.256-0.155V-280.763z"/>
	<path fill="#414042" d="M159.013-280.763c0.812-0.099,1.7-0.148,2.653-0.148c0.917,0,1.771,0.049,2.554,0.148v20.85
		c0,2.109,0.135,3.916,0.409,5.418c0.275,1.496,0.713,2.717,1.327,3.648c0.613,0.938,1.425,1.63,2.427,2.075
		c1.009,0.438,2.244,0.663,3.704,0.663c1.468,0,2.695-0.226,3.684-0.663c0.987-0.445,1.785-1.136,2.398-2.075
		c0.614-0.931,1.059-2.152,1.327-3.648c0.274-1.503,0.409-3.309,0.409-5.418v-20.85c0.854-0.099,1.722-0.148,2.61-0.148
		c0.952,0,1.835,0.049,2.653,0.148v21.767c0,2.456-0.227,4.65-0.691,6.59c-0.459,1.947-1.207,3.577-2.244,4.911
		c-1.044,1.327-2.392,2.342-4.064,3.034c-1.672,0.698-3.697,1.051-6.082,1.051s-4.409-0.353-6.074-1.051
		c-1.673-0.692-3.027-1.708-4.064-3.034c-1.037-1.333-1.792-2.963-2.251-4.911c-0.459-1.94-0.685-4.135-0.685-6.59V-280.763z"/>
	<path fill="#414042" d="M194.821-280.763c0.409-0.064,0.874-0.113,1.403-0.148s1.03-0.056,1.51-0.056
		c0.474,0,0.995,0.021,1.56,0.056c0.558,0.035,1.03,0.084,1.404,0.148l9.504,22.994l9.554-22.994
		c0.339-0.064,0.762-0.113,1.277-0.148c0.508-0.035,1.002-0.056,1.481-0.056c0.444,0,0.938,0.021,1.481,0.056
		c0.544,0.035,1.002,0.084,1.376,0.148l1.743,36.739c-0.409,0.071-0.826,0.12-1.256,0.155c-0.424,0.028-0.861,0.05-1.299,0.05
		c-0.444,0-0.882-0.021-1.305-0.05c-0.431-0.035-0.826-0.084-1.2-0.155l-1.178-28.562l-8.989,20.949
		c-0.685,0.105-1.383,0.155-2.096,0.155c-0.649,0-1.298-0.05-1.94-0.155l-8.686-21.104l-1.178,28.717
		c-0.374,0.071-0.77,0.12-1.179,0.155c-0.402,0.028-0.797,0.05-1.171,0.05c-0.445,0-0.868-0.021-1.277-0.05
		c-0.409-0.035-0.805-0.084-1.179-0.155L194.821-280.763z"/>
	<path fill="#414042" d="M235.49-280.813c0.515-0.063,1.114-0.134,1.813-0.205c0.698-0.063,1.432-0.127,2.201-0.176
		c0.762-0.049,1.531-0.092,2.3-0.127c0.763-0.035,1.503-0.049,2.223-0.049c1.87,0,3.648,0.183,5.334,0.557
		c1.687,0.374,3.168,1.023,4.445,1.94c1.277,0.924,2.293,2.138,3.041,3.655c0.748,1.517,1.122,3.415,1.122,5.701
		c0,2.385-0.396,4.368-1.199,5.948c-0.798,1.587-1.855,2.857-3.168,3.81s-2.802,1.623-4.467,2.018
		c-1.672,0.388-3.372,0.586-5.108,0.586c-0.648,0-1.221-0.007-1.714-0.028c-0.494-0.014-1.03-0.057-1.609-0.127v13.286
		c-0.818,0.099-1.687,0.155-2.604,0.155c-0.409,0-0.847-0.014-1.305-0.028c-0.459-0.014-0.896-0.056-1.306-0.127V-280.813z
		 M240.704-261.854c0.544,0.063,1.023,0.12,1.433,0.148c0.409,0.036,1.002,0.057,1.785,0.057c1.059,0,2.103-0.113,3.14-0.332
		c1.044-0.226,1.969-0.621,2.787-1.207c0.818-0.579,1.475-1.369,1.969-2.371c0.494-1.009,0.74-2.308,0.74-3.909
		c0-1.397-0.211-2.575-0.642-3.528c-0.424-0.953-1.009-1.722-1.757-2.3c-0.755-0.579-1.658-0.988-2.71-1.228
		c-1.058-0.233-2.201-0.353-3.422-0.353c-1.263,0-2.37,0.049-3.323,0.155V-261.854z"/>
	<path fill="#414042" d="M264.412-280.763c0.409-0.064,0.832-0.113,1.276-0.148s0.89-0.056,1.334-0.056
		c0.438,0,0.882,0.021,1.326,0.056s0.868,0.084,1.277,0.148v15.127h15.636v-15.127c0.374-0.064,0.783-0.113,1.228-0.148
		c0.438-0.035,0.882-0.056,1.326-0.056c0.438,0,0.896,0.021,1.354,0.056c0.459,0.035,0.89,0.084,1.299,0.148v36.739
		c-0.374,0.071-0.783,0.12-1.221,0.155c-0.444,0.028-0.903,0.05-1.383,0.05c-0.444,0-0.896-0.021-1.354-0.05
		c-0.459-0.035-0.875-0.084-1.249-0.155v-17.011h-15.636v17.011c-0.409,0.071-0.825,0.12-1.256,0.155
		c-0.424,0.028-0.875,0.05-1.348,0.05c-0.444,0-0.896-0.021-1.354-0.05c-0.466-0.035-0.882-0.084-1.256-0.155V-280.763z"/>
</g>
<g>
</g>
<g>
</g>
<g>
</g>
<g>
</g>
<g>
</g>
<g>
</g>
</svg>
