<?xml version="1.0" standalone="no"?>
<!DOCTYPE svg PUBLIC "-//W3C//DTD SVG 20010904//EN"
 "http://www.w3.org/TR/2001/REC-SVG-20010904/DTD/svg10.dtd">
<svg version="1.0" xmlns="http://www.w3.org/2000/svg"
 width="300.000000pt" height="300.000000pt" viewBox="0 0 300.000000 300.000000"
 preserveAspectRatio="xMidYMid meet">
<metadata>
Created by potrace 1.11, written by Peter Selinger 2001-2013
</metadata>
<g transform="translate(0.000000,300.000000) scale(0.100000,-0.100000)"
fill="#000000" stroke="none">
<path d="M685 2746 c-85 -38 -125 -151 -78 -223 16 -24 164 -133 180 -133 4 1
49 41 98 90 72 72 96 90 120 90 l30 1 -27 22 c-14 12 -69 52 -121 89 -102 73
-148 87 -202 64z"/>
<path d="M2214 2746 c-29 -13 -244 -164 -244 -172 0 -2 3 -3 8 -3 32 5 59 -13
143 -94 l97 -93 85 62 c47 35 90 71 95 81 20 38 21 96 2 134 -22 41 -73 89
-98 90 -9 0 -26 2 -37 4 -11 2 -34 -2 -51 -9z"/>
<path d="M395 2556 c-38 -17 -70 -52 -88 -96 -29 -73 -7 -130 71 -186 31 -22
103 -75 159 -117 88 -66 99 -72 83 -44 -22 37 -31 80 -21 93 24 32 162 157
167 151 3 -3 -30 -41 -75 -83 -44 -43 -81 -82 -81 -88 0 -5 9 -28 20 -51 22
-45 64 -75 105 -75 34 0 115 40 182 91 49 36 53 38 62 20 9 -15 3 -23 -37 -50
-79 -52 -115 -91 -159 -171 -45 -81 -60 -256 -29 -355 l15 -50 -19 25 c-34 43
-54 127 -52 224 l1 90 -20 -30 c-35 -51 -66 -117 -93 -201 -31 -93 -57 -127
-114 -143 -38 -12 -45 -10 -138 33 -55 24 -109 48 -121 51 l-22 7 17 -40 c36
-87 106 -175 192 -244 47 -37 313 -295 593 -574 279 -278 509 -504 512 -502
14 13 872 871 930 930 39 39 104 98 146 130 42 32 94 78 116 103 36 41 117
186 108 194 -2 2 -55 -19 -119 -47 -63 -28 -123 -51 -133 -51 -29 0 -81 37
-103 72 -11 18 -29 62 -41 97 -21 67 -54 135 -88 186 l-20 29 3 -74 c3 -79
-14 -171 -40 -221 -8 -17 -17 -29 -18 -27 -2 1 2 36 9 76 26 152 -10 308 -93
398 -38 41 -122 104 -138 104 -17 0 -17 5 -2 29 11 19 13 19 47 -9 52 -40 134
-87 174 -98 26 -7 41 -6 66 8 34 17 81 82 81 111 0 8 -80 92 -177 186 -98 94
-181 173 -184 177 -12 13 -56 13 -88 0 -28 -12 -134 -96 -295 -234 -72 -62
-97 -102 -98 -158 0 -21 35 -156 78 -302 68 -231 78 -275 79 -345 0 -76 -2
-83 -37 -135 -21 -30 -65 -77 -98 -104 -58 -47 -62 -48 -88 -35 -15 8 -57 44
-94 80 -69 70 -98 129 -98 204 0 18 25 119 56 226 30 107 57 201 59 209 2 8
15 53 28 100 41 148 28 173 -182 347 -175 146 -189 155 -238 155 -30 0 -46
-12 -129 -93 -52 -52 -97 -95 -99 -97 -2 -2 -56 36 -121 83 -182 135 -199 142
-269 111z"/>
<path d="M2484 2551 c-43 -26 -238 -172 -242 -180 -1 -4 36 -44 83 -90 47 -46
85 -89 85 -96 0 -7 -11 -33 -25 -59 l-25 -46 58 42 c254 186 274 205 287 265
11 56 -44 152 -102 174 -38 14 -85 11 -119 -10z"/>
<path d="M225 2302 c-31 -6 -83 -50 -101 -83 -21 -41 -20 -101 2 -138 10 -18
65 -66 121 -107 57 -41 109 -80 116 -87 7 -7 20 -16 28 -22 9 -5 36 -23 59
-40 35 -24 54 -30 93 -30 46 1 52 4 92 49 51 57 62 98 39 155 -13 33 -40 58
-162 149 -81 60 -159 116 -174 126 -32 21 -84 34 -113 28z"/>
<path d="M2704 2296 c-17 -6 -104 -65 -192 -131 -176 -131 -204 -165 -196
-233 6 -50 65 -119 112 -132 69 -18 77 -14 301 154 134 102 154 123 166 185 6
30 -24 99 -56 128 -32 29 -95 43 -135 29z"/>
<path d="M70 1984 c-60 -38 -85 -115 -57 -171 20 -37 287 -233 338 -247 48
-13 85 -1 120 37 32 34 45 82 35 124 -11 42 -55 78 -284 236 -60 41 -109 48
-152 21z"/>
<path d="M2778 1963 c-227 -156 -273 -194 -284 -236 -23 -95 78 -193 165 -160
29 10 302 205 321 228 7 8 15 35 17 59 9 79 -51 146 -130 146 -23 0 -52 -12
-89 -37z"/>
</g>
</svg>
