<?xml version="1.0" encoding="utf-8"?>
<!-- Generator: Adobe Illustrator 16.0.0, SVG Export Plug-In . SVG Version: 6.00 Build 0)  -->
<!DOCTYPE svg PUBLIC "-//W3C//DTD SVG 1.1//EN" "http://www.w3.org/Graphics/SVG/1.1/DTD/svg11.dtd">
<svg version="1.1" id="Layer_1" xmlns="http://www.w3.org/2000/svg" xmlns:xlink="http://www.w3.org/1999/xlink" x="0px" y="0px"
	 width="300px" height="82px" viewBox="0 0 300 82" enable-background="new 0 0 300 82" xml:space="preserve">
<g>
	<g>
		<path fill="#FAA93C" d="M32.154,49.514L32.154,49.514c4.04-2.646,7.521-9.797,7.521-9.797s0.006,0.02,0.01,0.031
			c0.214,1.436,0.876,3.104,2.424,4.769c0.053,0.062,0.105,0.12,0.158,0.179c0.012,0.012,0.021,0.023,0.033,0.037
			c0.607,0.665,1.125,1.043,1.125,1.043l19.563,15.17l-9.488,9.656L32.154,49.514z"/>
		<path fill="#FAA93C" d="M60.247,49.514L60.247,49.514c-4.04-2.646-7.521-9.797-7.521-9.797s-0.006,0.02-0.009,0.031
			c-0.215,1.436-0.877,3.104-2.424,4.769c-0.054,0.062-0.106,0.12-0.159,0.179c-0.011,0.012-0.021,0.023-0.033,0.037
			c-0.607,0.665-1.125,1.043-1.125,1.043l-19.563,15.17l9.488,9.656L60.247,49.514z"/>
		<path fill="#EB185A" d="M32.122,49.534c0.003,0.003,0.005,0.004,0.008,0.007l0.025-0.027l21.347,21.088l-7.3,7.128l-26.576-26.37
			C19.625,51.359,24.485,54.289,32.122,49.534z"/>
		<path fill="#EB185A" d="M60.279,49.534c-0.003,0.003-0.005,0.004-0.008,0.007l-0.025-0.027L38.9,70.602l7.301,7.128l26.575-26.37
			C72.776,51.359,67.916,54.289,60.279,49.534z"/>
		<path fill="#28A4A9" d="M20.519,27.342c-0.563,0.594-1.079,1.216-1.544,1.846c-1.43,1.071-3.476,1.119-5.024-0.036l-8.955-6.678
			c-1.873-1.397-2.294-4-0.941-5.815L4.546,16c1.354-1.814,3.969-2.153,5.842-0.756l8.955,6.678
			C21.086,23.222,21.551,25.56,20.519,27.342z"/>
		<path fill="#28A4A9" d="M0.654,25.728l0.419-0.583c1.153-1.608,3.433-1.945,5.092-0.755l7.933,5.69
			c1.66,1.19,2.07,3.458,0.917,5.065l-0.419,0.584c-1.154,1.607-3.434,1.945-5.093,0.755l-2.063-1.479l0,0L6.14,34.072l-0.522-0.375
			l0,0l-3.63-2.604l0,0l-0.416-0.299C-0.088,29.604-0.499,27.336,0.654,25.728z"/>
		<path fill="#445772" d="M19.606,21.039c-0.765-0.854-1.326-1.999-1.438-3.258l-0.025-0.3l5.352-5.153l-7.152-5.312
			c-1.875-1.392-4.529-0.991-5.929,0.895L9.905,8.596c-1.4,1.885-1.016,4.542,0.858,5.934l8.959,6.653
			c0.023,0.017,0.048,0.03,0.072,0.047C19.731,21.167,19.667,21.105,19.606,21.039z"/>
		<path fill="#445772" d="M19.723,8.62l4.357,3.144l4.893-4.711c0.081-0.107,0.253-0.312,0.54-0.522
			c0.374-0.276,0.96-0.552,1.72-0.55c0.171,0,0.351,0.019,0.535,0.048l-6.692-4.828c-1.851-1.335-4.44-0.908-5.783,0.955
			l-0.488,0.676C17.461,4.694,17.873,7.285,19.723,8.62z"/>
		<path fill="#445772" d="M19.625,51.359c0,0-3.938-4.329-6.781-6.305c-2.843-1.977-4.856-3.941-6.892-9.073
			c0,0,0.961,0.187,5.889,2.6c2.2,1.077,4.663,0.226,5.791-2.915c0.811-2.257,1.1-4.697,3.951-8.339c0,0-1.335,6.658,2.119,10.751
			c1.247,2.957,3.677,7.111,8.42,11.456C24.485,54.289,19.625,51.359,19.625,51.359z"/>
		<path fill="#28A4A9" d="M32.154,49.514l0.025-0.026c-5.042-4.617-7.479-9.03-8.645-11.999c-0.842-2.744-3.323-13.405,7.038-18.389
			l-0.76-1.335c0,0-4.793,4.001-7.317,4.088c-1.636,0.056-3.504-1.891-3.698-4.126L29.45,7.468c0,0,1.488-2.261,4.85,0.56
			c3.361,2.82,8.403,7.051,8.403,7.051s2.609,2.255,1.873,5.083l-4.411,15.497c0,0-0.833,1.726-0.479,4.09
			c-0.004-0.012-0.01-0.031-0.01-0.031S36.194,46.868,32.154,49.514z"/>
		<path fill="#28A4A9" d="M71.759,27.342c0.563,0.594,1.078,1.216,1.544,1.846c1.43,1.071,3.476,1.119,5.023-0.036l8.956-6.678
			c1.873-1.397,2.294-4,0.94-5.815L87.732,16c-1.353-1.814-3.968-2.153-5.841-0.756l-8.955,6.678
			C71.192,23.222,70.727,25.56,71.759,27.342z"/>
		<path fill="#28A4A9" d="M91.624,25.728l-0.42-0.583c-1.153-1.608-3.432-1.945-5.092-0.755l-7.933,5.69
			c-1.659,1.19-2.069,3.458-0.917,5.065l0.419,0.584c1.153,1.607,3.433,1.945,5.092,0.755l2.063-1.479l0,0l1.302-0.934l0.523-0.375
			l0,0l3.63-2.604l0,0l0.416-0.299C92.367,29.604,92.777,27.336,91.624,25.728z"/>
		<path fill="#445772" d="M72.671,21.039c0.766-0.854,1.327-1.999,1.438-3.258l0.026-0.3l-5.353-5.153l7.153-5.312
			c1.874-1.392,4.528-0.991,5.928,0.895l0.508,0.685c1.4,1.885,1.017,4.542-0.857,5.934l-8.96,6.653
			c-0.022,0.017-0.047,0.03-0.072,0.047C72.546,21.167,72.611,21.105,72.671,21.039z"/>
		<path fill="#445772" d="M72.555,8.62l-4.357,3.144l-4.892-4.711c-0.08-0.107-0.253-0.312-0.539-0.522
			c-0.375-0.276-0.96-0.552-1.721-0.55c-0.171,0-0.35,0.019-0.535,0.048l6.693-4.828c1.85-1.335,4.439-0.908,5.782,0.955
			l0.488,0.676C74.817,4.694,74.405,7.285,72.555,8.62z"/>
		<path fill="#445772" d="M72.653,51.359c0,0,3.938-4.329,6.781-6.305c2.842-1.977,4.856-3.941,6.893-9.073
			c0,0-0.962,0.187-5.89,2.6c-2.199,1.077-4.663,0.226-5.791-2.915c-0.811-2.257-1.099-4.697-3.951-8.339
			c0,0,1.335,6.658-2.119,10.751c-1.247,2.957-3.677,7.111-8.42,11.456C67.792,54.289,72.653,51.359,72.653,51.359z"/>
		<path fill="#28A4A9" d="M60.124,49.514l-0.025-0.026c5.042-4.617,7.479-9.03,8.645-11.999c0.841-2.744,3.323-13.405-7.038-18.389
			l0.761-1.335c0,0,4.793,4.001,7.317,4.088c1.636,0.056,3.504-1.891,3.698-4.126L62.829,7.468c0,0-1.489-2.261-4.85,0.56
			c-3.362,2.82-8.404,7.051-8.404,7.051s-2.609,2.255-1.873,5.083l4.411,15.497c0,0,0.833,1.726,0.48,4.09
			c0.003-0.012,0.009-0.031,0.009-0.031S56.083,46.868,60.124,49.514z"/>
	</g>
	<g>
		<path fill="#414042" d="M123.206,49.04c0,1.546-0.281,2.818-0.842,3.826c-0.562,1.002-1.333,1.796-2.315,2.382
			s-2.149,0.992-3.505,1.225c-1.356,0.237-2.828,0.354-4.421,0.354c-1.259,0-2.397-0.05-3.4-0.141
			c-1.007-0.092-2.092-0.214-3.264-0.349V31.265c0.892-0.141,1.86-0.257,2.915-0.349c1.051-0.098,2.276-0.141,3.681-0.141
			c1.332,0,2.576,0.111,3.733,0.33c1.157,0.223,2.169,0.595,3.032,1.124c0.867,0.527,1.55,1.229,2.053,2.106
			c0.504,0.876,0.756,1.98,0.756,3.311c0,1.1-0.248,2.097-0.736,2.998c-0.495,0.901-1.114,1.593-1.86,2.087
			c0.538,0.208,1.056,0.483,1.56,0.823c0.503,0.338,0.949,0.76,1.332,1.263c0.387,0.504,0.697,1.104,0.929,1.808
			C123.085,47.32,123.206,48.129,123.206,49.04z M111.526,40.838h0.984c1.007,0,1.786-0.204,2.348-0.615
			c0.562-0.407,0.842-1.114,0.842-2.121c0-0.489-0.101-0.901-0.3-1.225c-0.199-0.329-0.45-0.586-0.75-0.775
			c-0.306-0.184-0.644-0.314-1.017-0.382c-0.378-0.073-0.737-0.106-1.09-0.106c-0.141,0-0.311,0-0.508,0
			c-0.199,0-0.369,0.01-0.509,0.034V40.838z M111.526,45.814v5.894c0.165,0.024,0.369,0.039,0.615,0.054
			c0.247,0.009,0.567,0.015,0.964,0.015c0.445,0,0.896-0.044,1.351-0.141c0.456-0.092,0.872-0.252,1.245-0.475
			c0.374-0.218,0.673-0.522,0.896-0.911c0.217-0.387,0.329-0.871,0.329-1.451c0-1.124-0.368-1.903-1.104-2.335
			c-0.736-0.431-1.69-0.649-2.857-0.649H111.526z"/>
		<path fill="#414042" d="M129.516,56.613c-0.867,0-1.908-0.101-3.124-0.314V31.265c0.635-0.092,1.206-0.165,1.719-0.213
			c0.514-0.044,0.974-0.068,1.371-0.068c0.422,0,0.891,0.024,1.419,0.068c0.527,0.048,1.094,0.121,1.699,0.213v25.034
			C131.361,56.513,130.334,56.613,129.516,56.613z"/>
		<path fill="#414042" d="M149.926,42.765c0.629-0.092,1.191-0.164,1.679-0.208c0.494-0.048,0.949-0.073,1.371-0.073
			c0.397,0,0.876,0.025,1.438,0.073c0.562,0.044,1.109,0.116,1.646,0.208v12.765c-1.379,0.513-2.739,0.853-4.087,1.017
			c-1.341,0.164-2.494,0.246-3.452,0.246c-2.058,0-3.854-0.323-5.399-0.962c-1.544-0.645-2.833-1.541-3.873-2.684
			c-1.042-1.147-1.821-2.513-2.334-4.106c-0.513-1.588-0.77-3.316-0.77-5.186c0-1.874,0.266-3.607,0.803-5.21
			c0.538-1.598,1.317-2.983,2.334-4.155c1.017-1.167,2.271-2.078,3.767-2.735c1.497-0.654,3.191-0.979,5.084-0.979
			c1.124,0,2.194,0.083,3.211,0.242c1.017,0.165,2.136,0.504,3.351,1.017c-0.049,0.959-0.223,1.894-0.527,2.808
			c-0.305,0.911-0.62,1.681-0.949,2.31c-0.465-0.16-0.891-0.3-1.278-0.417c-0.388-0.121-0.756-0.212-1.104-0.281
			c-0.349-0.072-0.702-0.126-1.051-0.16c-0.354-0.034-0.727-0.053-1.124-0.053c-1.894,0-3.356,0.639-4.382,1.913
			c-1.032,1.273-1.544,3.171-1.544,5.699c0,2.498,0.503,4.362,1.51,5.593c1.002,1.225,2.499,1.84,4.489,1.84
			c0.441,0,0.838-0.033,1.192-0.106V42.765z"/>
		<path fill="#414042" d="M165.248,34.315h-6.559c-0.047-0.233-0.082-0.489-0.105-0.77c-0.024-0.281-0.033-0.552-0.033-0.809
			c0-0.257,0.009-0.519,0.033-0.79c0.023-0.267,0.059-0.519,0.105-0.756h16.692c0.048,0.237,0.083,0.479,0.106,0.741
			c0.02,0.256,0.034,0.513,0.034,0.77c0,0.257-0.015,0.533-0.034,0.823c-0.023,0.291-0.059,0.557-0.106,0.79h-6.556v22.09
			c-0.537,0.067-1.125,0.107-1.753,0.107c-0.655,0-1.265-0.04-1.825-0.107V34.315z"/>
		<path fill="#414042" d="M179.416,31.158c0.514-0.043,0.979-0.092,1.398-0.141c0.422-0.043,0.838-0.086,1.245-0.121
			c0.412-0.034,0.838-0.063,1.283-0.087c0.441-0.024,0.935-0.034,1.473-0.034c1.19,0,2.373,0.116,3.539,0.349
			c1.172,0.232,2.209,0.644,3.123,1.225c0.911,0.585,1.652,1.375,2.228,2.368c0.571,0.992,0.857,2.251,0.857,3.772
			c0,0.91-0.149,1.739-0.456,2.489c-0.305,0.746-0.691,1.414-1.157,2c-0.469,0.581-0.997,1.09-1.597,1.526
			c-0.596,0.431-1.172,0.783-1.734,1.064l-0.42,0.213l7.329,10.624c-0.634,0.067-1.346,0.107-2.14,0.107
			c-0.634,0-1.264-0.04-1.893-0.107l-8.068-11.675V44.59l0.281-0.073c0.635-0.164,1.298-0.382,2-0.662
			c0.701-0.281,1.352-0.648,1.946-1.108c0.597-0.456,1.09-1.003,1.491-1.647c0.398-0.644,0.597-1.418,0.597-2.329
			c0-1.685-0.498-2.934-1.491-3.752c-0.993-0.819-2.335-1.23-4.016-1.23c-0.396,0-0.765,0.015-1.103,0.039
			c-0.34,0.019-0.723,0.059-1.143,0.102v22.478c-0.257,0.025-0.544,0.049-0.857,0.067c-0.314,0.025-0.615,0.04-0.896,0.04
			s-0.581-0.011-0.911-0.02c-0.328-0.01-0.628-0.039-0.909-0.088V31.158z"/>
		<path fill="#414042" d="M200.276,31.191c0.281-0.043,0.571-0.077,0.876-0.101c0.307-0.024,0.611-0.039,0.916-0.039
			c0.3,0,0.604,0.015,0.91,0.039c0.305,0.024,0.596,0.058,0.877,0.101v25.214c-0.281,0.049-0.567,0.082-0.863,0.107
			c-0.29,0.019-0.601,0.033-0.924,0.033c-0.305,0-0.615-0.015-0.931-0.033c-0.319-0.025-0.604-0.059-0.861-0.107V31.191z"/>
		<path fill="#414042" d="M209.781,31.191c0.557-0.067,1.168-0.101,1.821-0.101c0.63,0,1.216,0.034,1.753,0.101V45.5
			c0,1.448,0.091,2.688,0.28,3.719c0.188,1.027,0.489,1.865,0.911,2.504c0.42,0.645,0.977,1.119,1.665,1.424
			c0.693,0.3,1.54,0.455,2.542,0.455c1.008,0,1.85-0.155,2.528-0.455c0.678-0.305,1.225-0.779,1.646-1.424
			c0.422-0.639,0.727-1.477,0.911-2.504c0.188-1.031,0.279-2.271,0.279-3.719V31.191c0.586-0.067,1.183-0.101,1.792-0.101
			c0.654,0,1.26,0.034,1.82,0.101V46.13c0,1.686-0.155,3.191-0.475,4.523c-0.314,1.336-0.827,2.455-1.539,3.37
			c-0.717,0.91-1.641,1.607-2.789,2.082c-1.148,0.479-2.537,0.722-4.175,0.722c-1.637,0-3.026-0.243-4.169-0.722
			c-1.147-0.475-2.077-1.172-2.789-2.082c-0.712-0.915-1.23-2.034-1.544-3.37c-0.315-1.332-0.471-2.838-0.471-4.523V31.191z"/>
		<path fill="#414042" d="M234.355,31.191c0.281-0.043,0.601-0.077,0.964-0.101c0.363-0.024,0.708-0.039,1.037-0.039
			c0.324,0,0.683,0.015,1.069,0.039c0.383,0.024,0.708,0.058,0.964,0.101l6.523,15.78l6.557-15.78
			c0.231-0.043,0.522-0.077,0.876-0.101c0.349-0.024,0.688-0.039,1.017-0.039c0.306,0,0.645,0.015,1.018,0.039
			c0.372,0.024,0.688,0.058,0.943,0.101l1.197,25.214c-0.281,0.049-0.567,0.082-0.863,0.107c-0.29,0.019-0.59,0.033-0.891,0.033
			c-0.305,0-0.604-0.015-0.896-0.033c-0.294-0.025-0.565-0.059-0.823-0.107l-0.809-19.602l-6.168,14.377
			c-0.471,0.073-0.949,0.106-1.438,0.106c-0.445,0-0.891-0.033-1.332-0.106l-5.96-14.483l-0.809,19.708
			c-0.257,0.049-0.529,0.082-0.809,0.107c-0.277,0.019-0.548,0.033-0.805,0.033c-0.306,0-0.596-0.015-0.877-0.033
			c-0.28-0.025-0.551-0.059-0.808-0.107L234.355,31.191z"/>
		<path fill="#414042" d="M262.267,31.158c0.354-0.043,0.767-0.092,1.245-0.141c0.479-0.043,0.983-0.086,1.511-0.121
			c0.524-0.034,1.052-0.063,1.579-0.087c0.522-0.024,1.031-0.034,1.524-0.034c1.283,0,2.504,0.126,3.661,0.382
			c1.157,0.257,2.175,0.702,3.051,1.332c0.876,0.635,1.573,1.468,2.088,2.508c0.513,1.041,0.769,2.344,0.769,3.913
			c0,1.637-0.271,2.997-0.823,4.082c-0.546,1.09-1.272,1.961-2.174,2.614c-0.9,0.655-1.922,1.113-3.065,1.386
			c-1.147,0.266-2.314,0.401-3.506,0.401c-0.445,0-0.838-0.004-1.176-0.019c-0.339-0.011-0.708-0.04-1.104-0.087v9.117
			c-0.562,0.067-1.157,0.107-1.787,0.107c-0.28,0-0.58-0.011-0.896-0.02c-0.314-0.01-0.615-0.039-0.896-0.088V31.158z
			 M265.846,44.168c0.373,0.044,0.703,0.084,0.984,0.103c0.279,0.023,0.687,0.038,1.225,0.038c0.727,0,1.442-0.077,2.154-0.227
			c0.717-0.155,1.351-0.427,1.912-0.828c0.563-0.396,1.012-0.94,1.351-1.627c0.34-0.692,0.51-1.583,0.51-2.682
			c0-0.959-0.146-1.768-0.441-2.421c-0.29-0.654-0.692-1.182-1.205-1.579c-0.519-0.397-1.139-0.678-1.86-0.843
			c-0.726-0.16-1.511-0.243-2.349-0.243c-0.865,0-1.627,0.035-2.28,0.107V44.168z"/>
		<path fill="#414042" d="M282.115,31.191c0.281-0.043,0.573-0.077,0.878-0.101c0.305-0.024,0.609-0.039,0.915-0.039
			c0.301,0,0.605,0.015,0.91,0.039c0.305,0.024,0.595,0.058,0.876,0.101v10.382h10.731V31.191c0.256-0.043,0.537-0.077,0.842-0.101
			c0.301-0.024,0.605-0.039,0.911-0.039c0.301,0,0.614,0.015,0.929,0.039c0.315,0.024,0.611,0.058,0.893,0.101v25.214
			c-0.258,0.049-0.539,0.082-0.838,0.107c-0.307,0.019-0.621,0.033-0.951,0.033c-0.305,0-0.613-0.015-0.929-0.033
			c-0.314-0.025-0.601-0.059-0.856-0.107V44.73h-10.731v11.675c-0.281,0.049-0.565,0.082-0.861,0.107
			c-0.29,0.019-0.601,0.033-0.925,0.033c-0.306,0-0.615-0.015-0.93-0.033c-0.319-0.025-0.606-0.059-0.863-0.107V31.191z"/>
	</g>
	<g>
		<path fill="#414042" d="M107.396,66.718c0.062-0.012,0.144-0.019,0.246-0.023c0.103-0.004,0.205-0.007,0.308-0.007
			c0.114,0,0.21,0.003,0.293,0.007c0.082,0.005,0.158,0.012,0.231,0.023l-1.77,10.09h4.492c-0.01,0.176-0.028,0.342-0.053,0.5
			c-0.026,0.159-0.07,0.316-0.131,0.47h-5.553L107.396,66.718z"/>
		<path fill="#414042" d="M114.334,70.793h-0.954c0-0.144,0.013-0.287,0.038-0.431c0.026-0.144,0.06-0.287,0.101-0.431h1.969
			l-1.369,7.846c-0.062,0.009-0.149,0.018-0.262,0.022c-0.113,0.006-0.205,0.009-0.276,0.009c-0.062,0-0.144-0.003-0.247-0.009
			c-0.102-0.005-0.18-0.014-0.23-0.022L114.334,70.793z M114.303,68.01c0.01-0.094,0.023-0.205,0.039-0.338
			c0.015-0.134,0.034-0.246,0.053-0.34c0.021-0.081,0.044-0.185,0.07-0.308c0.025-0.122,0.048-0.225,0.069-0.307
			c0.092-0.012,0.205-0.019,0.338-0.023c0.133-0.004,0.246-0.007,0.338-0.007c0.082,0,0.185,0.003,0.308,0.007
			c0.123,0.005,0.226,0.012,0.308,0.023c-0.01,0.082-0.021,0.185-0.031,0.307c-0.01,0.123-0.025,0.227-0.046,0.308
			c-0.021,0.094-0.046,0.206-0.077,0.34c-0.031,0.133-0.057,0.244-0.077,0.338c-0.083,0.011-0.185,0.018-0.308,0.022
			c-0.123,0.006-0.226,0.009-0.309,0.009c-0.092,0-0.204-0.003-0.337-0.009C114.508,68.027,114.396,68.021,114.303,68.01z"/>
		<path fill="#414042" d="M118.426,70.793h-1.277c0-0.144,0.008-0.284,0.023-0.422c0.016-0.139,0.054-0.285,0.116-0.439h1.276
			l0.123-0.691c0.174-0.964,0.487-1.688,0.939-2.169c0.451-0.482,1.107-0.723,1.968-0.723c0.226,0,0.425,0.015,0.6,0.046
			c0.174,0.03,0.318,0.071,0.432,0.123c-0.052,0.205-0.104,0.364-0.155,0.476c-0.051,0.113-0.107,0.242-0.168,0.386
			c-0.103-0.041-0.213-0.076-0.331-0.108c-0.118-0.029-0.259-0.046-0.422-0.046c-0.247,0-0.467,0.031-0.662,0.093
			c-0.195,0.062-0.368,0.17-0.516,0.322c-0.148,0.153-0.28,0.364-0.393,0.631s-0.205,0.605-0.277,1.016l-0.123,0.646h2.046
			c0,0.144-0.007,0.284-0.023,0.424c-0.015,0.138-0.053,0.285-0.115,0.438h-2.046l-1.37,7.846c-0.174,1.025-0.487,1.764-0.938,2.215
			s-1.108,0.677-1.97,0.677c-0.225,0-0.425-0.015-0.6-0.047c-0.174-0.029-0.317-0.07-0.431-0.121c0.051-0.207,0.1-0.365,0.146-0.478
			c0.046-0.113,0.1-0.24,0.162-0.386c0.103,0.041,0.215,0.075,0.338,0.102c0.123,0.024,0.267,0.038,0.431,0.038
			c0.246,0,0.469-0.025,0.669-0.076c0.2-0.052,0.374-0.149,0.523-0.293c0.148-0.144,0.277-0.352,0.384-0.624
			c0.108-0.271,0.198-0.623,0.27-1.054L118.426,70.793z"/>
		<path fill="#414042" d="M122.933,74.701c0,0.738,0.18,1.317,0.539,1.737c0.358,0.421,0.928,0.632,1.708,0.632
			c0.194,0,0.4-0.017,0.615-0.047c0.215-0.031,0.42-0.069,0.615-0.116c0.194-0.045,0.379-0.094,0.554-0.146
			c0.173-0.05,0.322-0.097,0.446-0.138c0.051,0.114,0.089,0.249,0.116,0.407c0.025,0.16,0.038,0.301,0.038,0.424
			c-0.144,0.062-0.32,0.123-0.531,0.185c-0.21,0.062-0.433,0.115-0.669,0.161c-0.236,0.047-0.477,0.085-0.724,0.115
			c-0.245,0.031-0.477,0.047-0.692,0.047c-0.584,0-1.075-0.082-1.469-0.246c-0.395-0.164-0.712-0.387-0.954-0.669
			c-0.242-0.283-0.414-0.611-0.516-0.984c-0.103-0.375-0.154-0.772-0.154-1.192c0-0.626,0.108-1.244,0.324-1.854
			c0.215-0.61,0.514-1.155,0.899-1.639c0.385-0.482,0.846-0.875,1.384-1.177c0.539-0.302,1.131-0.454,1.777-0.454
			c0.677,0,1.187,0.167,1.53,0.501c0.343,0.333,0.516,0.735,0.516,1.207c0,0.441-0.108,0.82-0.322,1.139
			c-0.216,0.317-0.514,0.587-0.893,0.807c-0.379,0.222-0.828,0.403-1.346,0.547c-0.518,0.144-1.074,0.261-1.668,0.354l-1.124,0.183
			V74.701z M123.933,73.485c1.036-0.164,1.843-0.396,2.423-0.691c0.579-0.299,0.869-0.713,0.869-1.246
			c0-0.277-0.097-0.501-0.292-0.67c-0.195-0.17-0.482-0.253-0.861-0.253c-0.369,0-0.713,0.083-1.031,0.253
			c-0.318,0.169-0.607,0.393-0.869,0.67c-0.262,0.275-0.487,0.598-0.677,0.961c-0.19,0.364-0.331,0.736-0.423,1.114L123.933,73.485z
			"/>
		<path fill="#414042" d="M131.301,73.933c-0.154-0.062-0.321-0.138-0.5-0.225c-0.18-0.086-0.347-0.203-0.5-0.353
			s-0.282-0.333-0.384-0.547c-0.103-0.215-0.154-0.481-0.154-0.8c0-0.687,0.267-1.234,0.8-1.646c0.533-0.41,1.271-0.615,2.215-0.615
			c0.482,0,0.9,0.055,1.254,0.161c0.354,0.108,0.602,0.204,0.746,0.286c-0.052,0.153-0.108,0.297-0.169,0.431
			c-0.063,0.133-0.133,0.271-0.216,0.414c-0.144-0.071-0.371-0.155-0.684-0.253c-0.313-0.099-0.664-0.146-1.054-0.146
			c-1.21,0-1.815,0.421-1.815,1.26c0,0.31,0.09,0.553,0.269,0.731c0.18,0.18,0.5,0.361,0.962,0.546l0.153,0.062
			c0.205,0.082,0.42,0.172,0.646,0.27c0.226,0.099,0.433,0.223,0.623,0.377c0.19,0.153,0.347,0.341,0.469,0.561
			c0.123,0.222,0.185,0.495,0.185,0.823c0,0.482-0.086,0.893-0.261,1.23c-0.174,0.339-0.41,0.615-0.708,0.831
			c-0.297,0.215-0.644,0.375-1.038,0.478c-0.396,0.103-0.818,0.153-1.269,0.153c-0.473,0-0.905-0.039-1.3-0.115
			c-0.395-0.076-0.694-0.167-0.9-0.27c0.051-0.349,0.154-0.65,0.308-0.907c0.102,0.052,0.233,0.1,0.392,0.146
			c0.159,0.046,0.328,0.084,0.507,0.114c0.18,0.031,0.356,0.058,0.531,0.078c0.173,0.019,0.338,0.03,0.492,0.03
			c0.677,0,1.202-0.112,1.577-0.338c0.375-0.226,0.561-0.621,0.561-1.184c0-0.412-0.11-0.709-0.33-0.894
			c-0.221-0.185-0.531-0.354-0.931-0.507L131.301,73.933z"/>
		<path fill="#414042" d="M137.285,70.793h-1.277c0-0.144,0.008-0.284,0.023-0.422c0.016-0.139,0.053-0.285,0.116-0.439h1.276
			c0.051-0.267,0.095-0.551,0.13-0.854c0.037-0.302,0.054-0.649,0.054-1.037v-0.17c0.164-0.052,0.344-0.093,0.539-0.123
			c0.195-0.032,0.349-0.046,0.462-0.046c0.01,0.111,0.015,0.213,0.015,0.299c0,0.088,0,0.173,0,0.255
			c0,0.193-0.021,0.448-0.062,0.761c-0.041,0.313-0.086,0.618-0.138,0.915h2.03c0,0.144-0.008,0.284-0.023,0.424
			c-0.015,0.138-0.053,0.285-0.116,0.438H138.3l-0.908,5.108c-0.021,0.071-0.031,0.141-0.031,0.208c0,0.065,0,0.124,0,0.176
			c0,0.338,0.092,0.552,0.277,0.639c0.185,0.088,0.39,0.13,0.615,0.13c0.338,0,0.656-0.05,0.954-0.153
			c0.021,0.135,0.033,0.27,0.039,0.407c0.005,0.139,0.002,0.296-0.008,0.47c-0.39,0.113-0.831,0.169-1.323,0.169
			c-0.482,0-0.869-0.113-1.161-0.339c-0.292-0.224-0.439-0.599-0.439-1.122c0-0.153,0.016-0.334,0.046-0.539L137.285,70.793z"/>
		<path fill="#414042" d="M143.038,77.809c-0.113,0-0.229-0.003-0.346-0.009c-0.118-0.005-0.203-0.014-0.254-0.022l-1.276-7.846
			c0.092-0.021,0.174-0.032,0.246-0.039c0.072-0.005,0.154-0.006,0.246-0.006c0.216,0,0.415,0.015,0.6,0.045l1.078,7.245
			l2.753-6.106c0.103-0.216,0.18-0.428,0.231-0.638c0.051-0.211,0.077-0.357,0.077-0.439v-0.062c0.185-0.03,0.359-0.045,0.523-0.045
			c0.195,0,0.385,0.015,0.569,0.045v0.062c0,0.164-0.026,0.328-0.077,0.492s-0.148,0.396-0.292,0.693l-3.815,8.245
			c-0.205,0.441-0.407,0.799-0.607,1.075c-0.2,0.278-0.405,0.495-0.615,0.655c-0.211,0.158-0.423,0.268-0.639,0.329
			c-0.215,0.063-0.446,0.094-0.692,0.094c-0.328,0-0.646-0.047-0.954-0.139c0-0.175,0.023-0.339,0.069-0.492
			c0.047-0.154,0.111-0.277,0.193-0.369c0.102,0.03,0.217,0.056,0.346,0.076c0.128,0.021,0.264,0.03,0.407,0.03
			c0.154,0,0.3-0.021,0.438-0.068c0.139-0.046,0.283-0.144,0.432-0.292c0.148-0.149,0.302-0.36,0.461-0.631
			c0.159-0.271,0.341-0.633,0.545-1.084L143.038,77.809z"/>
		<path fill="#414042" d="M149.483,69.764c0.103-0.585,0.189-1.089,0.261-1.508c0.072-0.42,0.108-0.815,0.108-1.185
			c0-0.144,0-0.251,0-0.324c0-0.071-0.006-0.162-0.016-0.275c0.062-0.012,0.152-0.019,0.27-0.023
			c0.118-0.006,0.213-0.009,0.284-0.009c0.063,0,0.144,0,0.247,0c0.102,0,0.179,0.006,0.23,0.017
			c0.01,0.112,0.015,0.212,0.015,0.299c0,0.088,0,0.173,0,0.255c0,0.123-0.009,0.276-0.03,0.461
			c-0.021,0.185-0.044,0.381-0.07,0.585c-0.025,0.205-0.056,0.413-0.092,0.624c-0.036,0.209-0.069,0.396-0.1,0.561l-1.199,6.723
			c-0.031,0.153-0.047,0.287-0.047,0.398c0,0.165,0.023,0.294,0.07,0.385c0.046,0.093,0.104,0.161,0.177,0.208
			c0.071,0.047,0.148,0.073,0.23,0.085c0.082,0.009,0.164,0.015,0.247,0.015c0.123,0,0.249-0.01,0.376-0.03
			c0.128-0.02,0.229-0.04,0.3-0.062c0.041,0.112,0.069,0.243,0.084,0.393c0.015,0.147,0.018,0.284,0.008,0.407
			c-0.154,0.051-0.333,0.091-0.539,0.115c-0.205,0.025-0.384,0.038-0.538,0.038c-0.185,0-0.365-0.018-0.539-0.053
			c-0.174-0.036-0.33-0.101-0.469-0.191c-0.138-0.094-0.249-0.222-0.331-0.386s-0.123-0.369-0.123-0.615
			c0-0.133,0.016-0.293,0.046-0.478L149.483,69.764z"/>
		<path fill="#414042" d="M153.515,74.701c0,0.738,0.179,1.317,0.536,1.737c0.36,0.421,0.93,0.632,1.708,0.632
			c0.196,0,0.401-0.017,0.615-0.047c0.217-0.031,0.422-0.069,0.616-0.116c0.195-0.045,0.378-0.094,0.553-0.146
			c0.176-0.05,0.325-0.097,0.446-0.138c0.052,0.114,0.09,0.249,0.116,0.407c0.024,0.16,0.038,0.301,0.038,0.424
			c-0.144,0.062-0.321,0.123-0.532,0.185c-0.209,0.062-0.432,0.115-0.668,0.161c-0.235,0.047-0.478,0.085-0.722,0.115
			c-0.248,0.031-0.478,0.047-0.691,0.047c-0.586,0-1.075-0.082-1.473-0.246c-0.394-0.164-0.712-0.387-0.952-0.669
			c-0.241-0.283-0.413-0.611-0.516-0.984c-0.103-0.375-0.152-0.772-0.152-1.192c0-0.626,0.105-1.244,0.322-1.854
			c0.214-0.61,0.515-1.155,0.899-1.639c0.384-0.482,0.846-0.875,1.385-1.177c0.537-0.302,1.131-0.454,1.775-0.454
			c0.68,0,1.189,0.167,1.53,0.501c0.345,0.333,0.518,0.735,0.518,1.207c0,0.441-0.108,0.82-0.324,1.139
			c-0.217,0.317-0.513,0.587-0.892,0.807c-0.38,0.222-0.828,0.403-1.345,0.547c-0.519,0.144-1.075,0.261-1.67,0.354l-1.122,0.183
			V74.701z M154.514,73.485c1.035-0.164,1.843-0.396,2.423-0.691c0.578-0.299,0.868-0.713,0.868-1.246
			c0-0.277-0.098-0.501-0.291-0.67c-0.195-0.17-0.483-0.253-0.861-0.253c-0.369,0-0.714,0.083-1.033,0.253
			c-0.316,0.169-0.606,0.393-0.867,0.67c-0.262,0.275-0.489,0.598-0.678,0.961c-0.189,0.364-0.33,0.736-0.424,1.114L154.514,73.485z
			"/>
		<path fill="#414042" d="M169.772,74.484c-0.103,0.586-0.191,1.08-0.27,1.485c-0.076,0.406-0.115,0.791-0.115,1.16
			c0,0.146,0.003,0.26,0.009,0.348c0.004,0.088,0.018,0.188,0.038,0.3c-0.062,0.009-0.146,0.018-0.255,0.022
			c-0.107,0.006-0.196,0.009-0.269,0.009c-0.062,0-0.146-0.003-0.253-0.009c-0.108-0.005-0.189-0.014-0.239-0.022
			c-0.032-0.256-0.047-0.513-0.047-0.769c0-0.072,0.006-0.16,0.015-0.263c0.012-0.103,0.026-0.212,0.047-0.331
			c0.021-0.117,0.044-0.231,0.07-0.346c0.025-0.112,0.049-0.215,0.067-0.308c-0.091,0.216-0.227,0.45-0.407,0.7
			c-0.179,0.252-0.396,0.489-0.653,0.715c-0.256,0.228-0.543,0.413-0.861,0.562c-0.317,0.149-0.666,0.224-1.046,0.224
			c-0.677,0-1.189-0.229-1.538-0.684c-0.349-0.457-0.522-1.095-0.522-1.916c0-0.697,0.109-1.383,0.329-2.054
			c0.222-0.671,0.547-1.271,0.978-1.799c0.431-0.529,0.968-0.954,1.608-1.277c0.64-0.324,1.381-0.485,2.224-0.485
			c0.316,0,0.654,0.028,1.014,0.085c0.358,0.056,0.646,0.126,0.861,0.208L169.772,74.484z M169.435,70.748
			c-0.277-0.072-0.632-0.107-1.063-0.107c-0.522,0-1.012,0.114-1.469,0.346c-0.456,0.23-0.854,0.551-1.191,0.961
			c-0.338,0.41-0.606,0.893-0.801,1.446c-0.195,0.554-0.292,1.154-0.292,1.8c0,0.585,0.107,1.043,0.324,1.376
			c0.215,0.334,0.527,0.501,0.938,0.501c0.379,0,0.741-0.125,1.084-0.369c0.344-0.246,0.654-0.574,0.932-0.984
			c0.276-0.41,0.514-0.882,0.715-1.415c0.199-0.533,0.357-1.087,0.469-1.663L169.435,70.748z"/>
		<path fill="#414042" d="M173.264,69.764c0.103-0.585,0.19-1.089,0.262-1.508c0.072-0.42,0.107-0.815,0.107-1.185
			c0-0.144,0-0.251,0-0.324c0-0.071-0.005-0.162-0.015-0.275c0.062-0.012,0.15-0.019,0.27-0.023
			c0.117-0.006,0.212-0.009,0.284-0.009c0.062,0,0.144,0,0.246,0s0.18,0.006,0.229,0.017c0.011,0.112,0.017,0.212,0.017,0.299
			c0,0.088,0,0.173,0,0.255c0,0.123-0.011,0.276-0.031,0.461s-0.044,0.381-0.068,0.585c-0.025,0.205-0.058,0.413-0.093,0.624
			c-0.036,0.209-0.07,0.396-0.101,0.561l-1.2,6.723c-0.03,0.153-0.045,0.287-0.045,0.398c0,0.165,0.021,0.294,0.068,0.385
			c0.047,0.093,0.105,0.161,0.178,0.208c0.071,0.047,0.147,0.073,0.229,0.085c0.084,0.009,0.166,0.015,0.248,0.015
			c0.121,0,0.247-0.01,0.376-0.03c0.128-0.02,0.229-0.04,0.299-0.062c0.041,0.112,0.07,0.243,0.085,0.393
			c0.017,0.147,0.018,0.284,0.009,0.407c-0.153,0.051-0.334,0.091-0.539,0.115c-0.205,0.025-0.384,0.038-0.539,0.038
			c-0.185,0-0.363-0.018-0.537-0.053c-0.175-0.036-0.331-0.101-0.469-0.191c-0.14-0.094-0.249-0.222-0.331-0.386
			s-0.123-0.369-0.123-0.615c0-0.133,0.015-0.293,0.045-0.478L173.264,69.764z"/>
		<path fill="#414042" d="M177.571,70.793h-1.277c0-0.144,0.008-0.284,0.023-0.422c0.015-0.139,0.055-0.285,0.114-0.439h1.277
			c0.052-0.267,0.096-0.551,0.131-0.854c0.036-0.302,0.054-0.649,0.054-1.037v-0.17c0.164-0.052,0.343-0.093,0.538-0.123
			c0.196-0.032,0.35-0.046,0.463-0.046c0.009,0.111,0.016,0.213,0.016,0.299c0,0.088,0,0.173,0,0.255
			c0,0.193-0.021,0.448-0.063,0.761c-0.04,0.313-0.087,0.618-0.138,0.915h2.03c0,0.144-0.009,0.284-0.023,0.424
			c-0.015,0.138-0.053,0.285-0.116,0.438h-2.014l-0.908,5.108c-0.021,0.071-0.031,0.141-0.031,0.208c0,0.065,0,0.124,0,0.176
			c0,0.338,0.093,0.552,0.277,0.639c0.185,0.088,0.39,0.13,0.615,0.13c0.338,0,0.656-0.05,0.953-0.153
			c0.021,0.135,0.034,0.27,0.04,0.407c0.004,0.139,0.001,0.296-0.008,0.47c-0.391,0.113-0.832,0.169-1.324,0.169
			c-0.481,0-0.868-0.113-1.161-0.339c-0.292-0.224-0.438-0.599-0.438-1.122c0-0.153,0.015-0.334,0.046-0.539L177.571,70.793z"/>
		<path fill="#414042" d="M182.323,74.701c0,0.738,0.181,1.317,0.539,1.737c0.359,0.421,0.929,0.632,1.708,0.632
			c0.193,0,0.398-0.017,0.614-0.047c0.215-0.031,0.42-0.069,0.616-0.116c0.193-0.045,0.378-0.094,0.553-0.146
			c0.176-0.05,0.325-0.097,0.446-0.138c0.052,0.114,0.09,0.249,0.116,0.407c0.026,0.16,0.038,0.301,0.038,0.424
			c-0.144,0.062-0.321,0.123-0.53,0.185c-0.211,0.062-0.434,0.115-0.67,0.161c-0.235,0.047-0.476,0.085-0.722,0.115
			c-0.248,0.031-0.478,0.047-0.693,0.047c-0.584,0-1.073-0.082-1.469-0.246s-0.714-0.387-0.954-0.669
			c-0.24-0.283-0.413-0.611-0.516-0.984c-0.103-0.375-0.152-0.772-0.152-1.192c0-0.626,0.107-1.244,0.322-1.854
			c0.216-0.61,0.515-1.155,0.899-1.639c0.386-0.482,0.847-0.875,1.385-1.177c0.537-0.302,1.131-0.454,1.776-0.454
			c0.677,0,1.188,0.167,1.531,0.501c0.344,0.333,0.516,0.735,0.516,1.207c0,0.441-0.108,0.82-0.324,1.139
			c-0.215,0.317-0.513,0.587-0.892,0.807c-0.38,0.222-0.828,0.403-1.347,0.547c-0.517,0.144-1.073,0.261-1.668,0.354l-1.124,0.183
			V74.701z M183.324,73.485c1.035-0.164,1.843-0.396,2.423-0.691c0.578-0.299,0.868-0.713,0.868-1.246
			c0-0.277-0.097-0.501-0.291-0.67c-0.195-0.17-0.482-0.253-0.861-0.253c-0.369,0-0.714,0.083-1.031,0.253
			c-0.318,0.169-0.608,0.393-0.869,0.67c-0.262,0.275-0.487,0.598-0.678,0.961c-0.189,0.364-0.33,0.736-0.422,1.114L183.324,73.485z
			"/>
		<path fill="#414042" d="M189.478,73.192c0.103-0.584,0.192-1.079,0.27-1.483c0.076-0.404,0.114-0.793,0.114-1.162
			c0-0.144-0.003-0.258-0.007-0.346c-0.005-0.086-0.02-0.188-0.04-0.3c0.063-0.011,0.146-0.018,0.255-0.023
			c0.107-0.005,0.196-0.008,0.27-0.008c0.062,0,0.146,0.003,0.254,0.008c0.108,0.006,0.188,0.013,0.238,0.023
			c0.021,0.082,0.032,0.164,0.038,0.246c0.005,0.082,0.008,0.194,0.008,0.338s-0.006,0.277-0.015,0.4
			c-0.011,0.123-0.026,0.241-0.047,0.353c0.153-0.185,0.316-0.354,0.484-0.514c0.17-0.158,0.354-0.301,0.554-0.424
			c0.201-0.123,0.418-0.22,0.653-0.291c0.237-0.072,0.503-0.108,0.8-0.108c0.073,0,0.155,0.003,0.246,0.007
			c0.094,0.006,0.166,0.02,0.217,0.04c0,0.144-0.016,0.297-0.047,0.461c-0.03,0.164-0.098,0.333-0.2,0.507
			c-0.02-0.01-0.076-0.023-0.169-0.038c-0.092-0.016-0.18-0.023-0.262-0.023c-0.275,0-0.556,0.055-0.838,0.163
			c-0.281,0.106-0.545,0.281-0.793,0.521c-0.246,0.241-0.464,0.558-0.653,0.946c-0.188,0.391-0.337,0.862-0.439,1.415l-0.675,3.877
			c-0.062,0.009-0.146,0.018-0.255,0.022c-0.107,0.006-0.196,0.009-0.269,0.009c-0.062,0-0.146-0.003-0.253-0.009
			c-0.108-0.005-0.188-0.014-0.24-0.022L189.478,73.192z"/>
		<path fill="#414042" d="M200,74.484c-0.104,0.586-0.193,1.08-0.27,1.485c-0.078,0.406-0.116,0.791-0.116,1.16
			c0,0.146,0.001,0.26,0.007,0.348s0.018,0.188,0.04,0.3c-0.063,0.009-0.146,0.018-0.255,0.022c-0.107,0.006-0.197,0.009-0.27,0.009
			c-0.061,0-0.145-0.003-0.254-0.009c-0.106-0.005-0.188-0.014-0.238-0.022c-0.031-0.256-0.045-0.513-0.045-0.769
			c0-0.072,0.004-0.16,0.014-0.263c0.012-0.103,0.025-0.212,0.047-0.331c0.021-0.117,0.045-0.231,0.07-0.346
			c0.025-0.112,0.049-0.215,0.068-0.308c-0.092,0.216-0.228,0.45-0.408,0.7c-0.18,0.252-0.396,0.489-0.652,0.715
			c-0.258,0.228-0.544,0.413-0.861,0.562c-0.318,0.149-0.667,0.224-1.048,0.224c-0.675,0-1.189-0.229-1.538-0.684
			c-0.349-0.457-0.521-1.095-0.521-1.916c0-0.697,0.11-1.383,0.33-2.054c0.221-0.671,0.546-1.271,0.977-1.799
			c0.431-0.529,0.967-0.954,1.607-1.277c0.641-0.324,1.383-0.485,2.223-0.485c0.318,0,0.656,0.028,1.016,0.085
			c0.359,0.056,0.646,0.126,0.861,0.208L200,74.484z M199.661,70.748c-0.278-0.072-0.632-0.107-1.062-0.107
			c-0.523,0-1.014,0.114-1.47,0.346c-0.457,0.23-0.854,0.551-1.192,0.961c-0.337,0.41-0.604,0.893-0.8,1.446
			c-0.194,0.554-0.293,1.154-0.293,1.8c0,0.585,0.108,1.043,0.324,1.376c0.215,0.334,0.527,0.501,0.938,0.501
			c0.379,0,0.741-0.125,1.084-0.369c0.344-0.246,0.653-0.574,0.932-0.984c0.275-0.41,0.514-0.882,0.715-1.415
			c0.199-0.533,0.355-1.087,0.469-1.663L199.661,70.748z"/>
		<path fill="#414042" d="M203.537,70.793h-1.277c0-0.144,0.008-0.284,0.023-0.422c0.015-0.139,0.055-0.285,0.114-0.439h1.277
			c0.052-0.267,0.095-0.551,0.13-0.854c0.037-0.302,0.055-0.649,0.055-1.037v-0.17c0.164-0.052,0.343-0.093,0.537-0.123
			c0.196-0.032,0.351-0.046,0.463-0.046c0.009,0.111,0.017,0.213,0.017,0.299c0,0.088,0,0.173,0,0.255
			c0,0.193-0.022,0.448-0.063,0.761c-0.039,0.313-0.086,0.618-0.138,0.915h2.03c0,0.144-0.009,0.284-0.023,0.424
			c-0.015,0.138-0.054,0.285-0.115,0.438h-2.016l-0.906,5.108c-0.021,0.071-0.031,0.141-0.031,0.208c0,0.065,0,0.124,0,0.176
			c0,0.338,0.092,0.552,0.277,0.639c0.184,0.088,0.389,0.13,0.616,0.13c0.337,0,0.654-0.05,0.952-0.153
			c0.021,0.135,0.033,0.27,0.039,0.407c0.005,0.139,0.002,0.296-0.009,0.47c-0.39,0.113-0.83,0.169-1.322,0.169
			c-0.481,0-0.868-0.113-1.161-0.339c-0.292-0.224-0.438-0.599-0.438-1.122c0-0.153,0.015-0.334,0.046-0.539L203.537,70.793z"/>
		<path fill="#414042" d="M208.674,70.793h-0.953c0-0.144,0.012-0.287,0.038-0.431c0.024-0.144,0.059-0.287,0.1-0.431h1.969
			l-1.37,7.846c-0.062,0.009-0.147,0.018-0.261,0.022c-0.111,0.006-0.205,0.009-0.276,0.009c-0.062,0-0.144-0.003-0.246-0.009
			c-0.103-0.005-0.179-0.014-0.231-0.022L208.674,70.793z M208.644,68.01c0.01-0.094,0.021-0.205,0.038-0.338
			c0.016-0.134,0.033-0.246,0.054-0.34c0.021-0.081,0.044-0.185,0.069-0.308c0.026-0.122,0.05-0.225,0.068-0.307
			c0.093-0.012,0.205-0.019,0.339-0.023c0.133-0.004,0.246-0.007,0.34-0.007c0.08,0,0.185,0.003,0.306,0.007
			c0.123,0.005,0.226,0.012,0.308,0.023c-0.009,0.082-0.021,0.185-0.029,0.307c-0.012,0.123-0.026,0.227-0.047,0.308
			c-0.021,0.094-0.047,0.206-0.077,0.34c-0.031,0.133-0.056,0.244-0.076,0.338c-0.082,0.011-0.185,0.018-0.308,0.022
			c-0.123,0.006-0.226,0.009-0.308,0.009c-0.093,0-0.205-0.003-0.339-0.009C208.847,68.027,208.735,68.021,208.644,68.01z"/>
		<path fill="#414042" d="M214.058,77.962c-0.872,0-1.546-0.255-2.023-0.762c-0.476-0.507-0.715-1.248-0.715-2.224
			c0-0.531,0.085-1.103,0.254-1.714c0.17-0.609,0.431-1.178,0.785-1.7c0.353-0.523,0.804-0.957,1.354-1.3
			c0.548-0.344,1.196-0.516,1.945-0.516c0.871,0,1.545,0.255,2.024,0.762c0.475,0.509,0.713,1.25,0.713,2.224
			c0,0.532-0.083,1.104-0.253,1.714c-0.17,0.611-0.431,1.177-0.784,1.701c-0.354,0.522-0.806,0.955-1.354,1.299
			C215.455,77.789,214.806,77.962,214.058,77.962z M214.166,77.07c0.554,0,1.028-0.14,1.422-0.415
			c0.395-0.278,0.721-0.627,0.978-1.047c0.256-0.421,0.445-0.887,0.569-1.4c0.123-0.512,0.185-1.001,0.185-1.461
			c0-0.677-0.156-1.196-0.47-1.562c-0.313-0.363-0.746-0.545-1.3-0.545s-1.029,0.138-1.424,0.413
			c-0.394,0.278-0.721,0.627-0.976,1.048c-0.256,0.42-0.446,0.886-0.569,1.4c-0.123,0.513-0.185,0.999-0.185,1.46
			c0,0.677,0.156,1.198,0.469,1.562C213.179,76.887,213.612,77.07,214.166,77.07z"/>
		<path fill="#414042" d="M220.749,73.192c0.103-0.584,0.191-1.079,0.27-1.483c0.076-0.404,0.115-0.793,0.115-1.162
			c0-0.144-0.003-0.258-0.009-0.346c-0.004-0.086-0.018-0.188-0.038-0.3c0.062-0.011,0.146-0.018,0.255-0.023
			c0.107-0.005,0.196-0.008,0.269-0.008c0.062,0,0.146,0.003,0.253,0.008c0.108,0.006,0.188,0.013,0.239,0.023
			c0.021,0.082,0.033,0.171,0.038,0.27c0.006,0.098,0.009,0.218,0.009,0.361c0,0.267-0.022,0.521-0.062,0.77
			c-0.041,0.246-0.088,0.461-0.14,0.646c0.093-0.215,0.231-0.448,0.416-0.7s0.404-0.489,0.661-0.715
			c0.256-0.226,0.546-0.413,0.87-0.563c0.322-0.147,0.674-0.223,1.052-0.223c0.616,0,1.096,0.169,1.439,0.509
			c0.345,0.338,0.515,0.835,0.515,1.491c0,0.153-0.009,0.329-0.029,0.522c-0.021,0.196-0.047,0.381-0.078,0.554l-0.861,4.954
			c-0.062,0.009-0.146,0.018-0.253,0.022c-0.108,0.006-0.198,0.009-0.27,0.009c-0.062,0-0.146-0.003-0.255-0.009
			c-0.107-0.005-0.187-0.014-0.237-0.022l0.814-4.645c0.03-0.185,0.057-0.375,0.077-0.57c0.021-0.194,0.031-0.364,0.031-0.508
			c0-0.492-0.119-0.844-0.354-1.054c-0.237-0.211-0.54-0.316-0.908-0.316c-0.369,0-0.721,0.122-1.053,0.362
			c-0.334,0.241-0.639,0.565-0.917,0.97c-0.275,0.405-0.515,0.871-0.715,1.398c-0.199,0.529-0.352,1.081-0.454,1.655l-0.477,2.707
			c-0.062,0.009-0.145,0.018-0.253,0.022c-0.108,0.006-0.198,0.009-0.27,0.009c-0.062,0-0.146-0.003-0.254-0.009
			c-0.108-0.005-0.188-0.014-0.238-0.022L220.749,73.192z"/>
		<path fill="#414042" d="M233.701,70.793h-0.954c0-0.144,0.012-0.287,0.038-0.431c0.025-0.144,0.059-0.287,0.1-0.431h1.969
			l-1.368,7.846c-0.063,0.009-0.149,0.018-0.262,0.022c-0.111,0.006-0.205,0.009-0.277,0.009c-0.062,0-0.144-0.003-0.246-0.009
			c-0.103-0.005-0.18-0.014-0.231-0.022L233.701,70.793z M233.669,68.01c0.012-0.094,0.023-0.205,0.039-0.338
			c0.017-0.134,0.034-0.246,0.055-0.34c0.021-0.081,0.044-0.185,0.068-0.308c0.025-0.122,0.049-0.225,0.069-0.307
			c0.092-0.012,0.205-0.019,0.338-0.023c0.134-0.004,0.246-0.007,0.34-0.007c0.081,0,0.185,0.003,0.307,0.007
			c0.123,0.005,0.226,0.012,0.308,0.023c-0.009,0.082-0.021,0.185-0.029,0.307c-0.012,0.123-0.026,0.227-0.047,0.308
			c-0.022,0.094-0.047,0.206-0.078,0.34c-0.03,0.133-0.056,0.244-0.076,0.338c-0.082,0.011-0.185,0.018-0.308,0.022
			c-0.123,0.006-0.226,0.009-0.308,0.009c-0.092,0-0.206-0.003-0.338-0.009C233.874,68.027,233.763,68.021,233.669,68.01z"/>
		<path fill="#414042" d="M237.208,73.192c0.103-0.584,0.193-1.079,0.271-1.483c0.075-0.404,0.114-0.793,0.114-1.162
			c0-0.144-0.003-0.258-0.007-0.346c-0.006-0.086-0.02-0.188-0.038-0.3c0.062-0.011,0.145-0.018,0.253-0.023
			c0.107-0.005,0.196-0.008,0.27-0.008c0.062,0,0.146,0.003,0.254,0.008c0.108,0.006,0.188,0.013,0.238,0.023
			c0.021,0.082,0.032,0.171,0.038,0.27c0.005,0.098,0.008,0.218,0.008,0.361c0,0.267-0.021,0.521-0.062,0.77
			c-0.041,0.246-0.087,0.461-0.138,0.646c0.092-0.215,0.231-0.448,0.416-0.7s0.404-0.489,0.659-0.715
			c0.258-0.226,0.548-0.413,0.87-0.563c0.323-0.147,0.674-0.223,1.053-0.223c0.615,0,1.095,0.169,1.438,0.509
			c0.345,0.338,0.516,0.835,0.516,1.491c0,0.153-0.01,0.329-0.03,0.522c-0.021,0.196-0.047,0.381-0.076,0.554l-0.863,4.954
			c-0.062,0.009-0.145,0.018-0.253,0.022c-0.108,0.006-0.198,0.009-0.27,0.009c-0.062,0-0.146-0.003-0.254-0.009
			c-0.106-0.005-0.186-0.014-0.238-0.022l0.815-4.645c0.031-0.185,0.056-0.375,0.076-0.57c0.021-0.194,0.032-0.364,0.032-0.508
			c0-0.492-0.118-0.844-0.354-1.054c-0.235-0.211-0.539-0.316-0.908-0.316s-0.719,0.122-1.053,0.362
			c-0.333,0.241-0.639,0.565-0.916,0.97c-0.276,0.405-0.516,0.871-0.715,1.398c-0.2,0.529-0.352,1.081-0.454,1.655l-0.476,2.707
			c-0.062,0.009-0.146,0.018-0.255,0.022c-0.107,0.006-0.196,0.009-0.269,0.009c-0.063,0-0.146-0.003-0.255-0.009
			c-0.108-0.005-0.188-0.014-0.237-0.022L237.208,73.192z"/>
		<path fill="#414042" d="M250.56,73.055l3.691-4.154h-4.29c0-0.152,0.016-0.326,0.053-0.521c0.036-0.194,0.068-0.344,0.1-0.446
			h6.015l0.047,0.123l-3.753,4.23c0.472,0.01,0.885,0.085,1.237,0.223c0.354,0.139,0.649,0.323,0.885,0.554
			c0.236,0.231,0.413,0.501,0.53,0.809c0.119,0.306,0.178,0.64,0.178,0.999c0,0.636-0.107,1.208-0.322,1.715
			c-0.217,0.509-0.513,0.94-0.894,1.3c-0.38,0.358-0.832,0.634-1.361,0.823c-0.528,0.19-1.105,0.285-1.729,0.285
			c-0.205,0-0.439-0.015-0.7-0.039c-0.261-0.026-0.521-0.063-0.776-0.116c-0.258-0.051-0.501-0.111-0.732-0.183
			c-0.229-0.073-0.416-0.149-0.56-0.231c0.05-0.144,0.123-0.298,0.214-0.462c0.094-0.164,0.185-0.308,0.278-0.431
			c0.244,0.144,0.581,0.264,1.008,0.36c0.425,0.099,0.853,0.148,1.283,0.148c0.472,0,0.902-0.07,1.292-0.208
			c0.39-0.14,0.727-0.34,1.008-0.601c0.282-0.263,0.501-0.582,0.654-0.961c0.152-0.381,0.23-0.812,0.23-1.294
			c0-0.347-0.061-0.643-0.176-0.883c-0.12-0.24-0.278-0.431-0.479-0.568c-0.199-0.141-0.429-0.24-0.691-0.302
			c-0.262-0.061-0.534-0.091-0.821-0.091c-0.217,0-0.436,0.007-0.655,0.021c-0.22,0.017-0.443,0.049-0.669,0.1L250.56,73.055z"/>
		<path fill="#414042" d="M261.097,77.962c-0.624,0-1.139-0.112-1.538-0.338c-0.4-0.228-0.715-0.51-0.945-0.854
			c-0.231-0.343-0.39-0.715-0.478-1.114c-0.088-0.4-0.13-0.77-0.13-1.107c0-0.935,0.112-1.811,0.338-2.631s0.547-1.538,0.961-2.153
			c0.416-0.617,0.916-1.101,1.5-1.455c0.585-0.353,1.241-0.53,1.971-0.53c0.624,0,1.138,0.113,1.536,0.339
			c0.401,0.226,0.717,0.511,0.946,0.854c0.231,0.345,0.39,0.715,0.478,1.115c0.087,0.399,0.131,0.769,0.131,1.107
			c0,0.935-0.113,1.811-0.339,2.631c-0.226,0.821-0.546,1.538-0.961,2.153c-0.416,0.615-0.918,1.1-1.507,1.454
			C262.469,77.785,261.815,77.962,261.097,77.962z M261.205,77.009c0.502,0,0.97-0.137,1.4-0.409
			c0.431-0.271,0.804-0.66,1.123-1.169c0.316-0.507,0.568-1.12,0.753-1.838c0.185-0.717,0.277-1.522,0.277-2.414
			c0-0.267-0.028-0.544-0.085-0.831c-0.056-0.287-0.161-0.551-0.315-0.792c-0.153-0.24-0.366-0.439-0.639-0.594
			c-0.271-0.152-0.622-0.229-1.053-0.229c-0.503,0-0.97,0.136-1.4,0.407c-0.431,0.272-0.805,0.662-1.124,1.169
			c-0.316,0.508-0.568,1.122-0.753,1.838c-0.185,0.718-0.276,1.523-0.276,2.416c0,0.267,0.027,0.543,0.085,0.83
			c0.056,0.287,0.161,0.553,0.314,0.793c0.154,0.241,0.366,0.438,0.639,0.592C260.423,76.931,260.774,77.009,261.205,77.009z"/>
		<path fill="#414042" d="M276.973,74.484c-0.103,0.586-0.192,1.08-0.27,1.485c-0.076,0.406-0.116,0.791-0.116,1.16
			c0,0.146,0.002,0.26,0.009,0.348c0.005,0.088,0.017,0.188,0.038,0.3c-0.062,0.009-0.146,0.018-0.253,0.022
			c-0.108,0.006-0.199,0.009-0.27,0.009c-0.062,0-0.146-0.003-0.254-0.009c-0.108-0.005-0.188-0.014-0.238-0.022
			c-0.022-0.082-0.034-0.164-0.038-0.246c-0.006-0.082-0.009-0.194-0.009-0.338c0-0.072,0.004-0.167,0.016-0.286
			c0.009-0.117,0.025-0.243,0.046-0.376c0.021-0.134,0.044-0.267,0.068-0.4c0.026-0.132,0.055-0.256,0.085-0.369
			c-0.092,0.216-0.227,0.45-0.407,0.7c-0.18,0.252-0.396,0.489-0.654,0.715c-0.255,0.228-0.542,0.413-0.86,0.562
			c-0.317,0.149-0.666,0.224-1.046,0.224c-0.677,0-1.19-0.229-1.539-0.684c-0.349-0.457-0.523-1.095-0.523-1.916
			c0-0.697,0.111-1.383,0.331-2.054c0.222-0.671,0.547-1.271,0.978-1.799c0.431-0.529,0.965-0.954,1.608-1.277
			c0.64-0.324,1.381-0.485,2.221-0.485c0.135,0,0.282,0.008,0.446,0.023c0.164,0.015,0.308,0.034,0.431,0.055
			c0.103-0.585,0.193-1.098,0.27-1.538c0.076-0.442,0.116-0.847,0.116-1.216c0-0.144,0-0.251,0-0.324
			c0-0.071-0.005-0.162-0.017-0.275c0.063-0.012,0.152-0.019,0.27-0.023c0.119-0.006,0.213-0.009,0.284-0.009
			c0.063,0,0.146,0,0.248,0s0.179,0.006,0.229,0.017c0.011,0.112,0.017,0.212,0.017,0.299c0,0.088,0,0.173,0,0.255
			c0,0.123-0.009,0.276-0.023,0.461c-0.017,0.185-0.038,0.377-0.07,0.577c-0.031,0.199-0.061,0.401-0.091,0.608
			c-0.032,0.205-0.062,0.39-0.094,0.554L276.973,74.484z M276.648,70.748c-0.276-0.072-0.63-0.107-1.061-0.107
			c-0.522,0-1.014,0.114-1.469,0.346c-0.457,0.23-0.854,0.551-1.192,0.961c-0.339,0.41-0.605,0.893-0.8,1.446
			c-0.195,0.554-0.293,1.154-0.293,1.8c0,0.585,0.108,1.043,0.323,1.376c0.216,0.334,0.527,0.501,0.939,0.501
			c0.378,0,0.739-0.125,1.084-0.369c0.344-0.246,0.653-0.574,0.93-0.984c0.277-0.41,0.516-0.882,0.717-1.415
			c0.199-0.533,0.354-1.087,0.469-1.663L276.648,70.748z"/>
		<path fill="#414042" d="M285.217,74.484c-0.103,0.586-0.192,1.08-0.27,1.485c-0.076,0.406-0.114,0.791-0.114,1.16
			c0,0.146,0.001,0.26,0.007,0.348c0.005,0.088,0.018,0.188,0.038,0.3c-0.062,0.009-0.145,0.018-0.253,0.022
			c-0.108,0.006-0.198,0.009-0.27,0.009c-0.062,0-0.146-0.003-0.254-0.009c-0.108-0.005-0.188-0.014-0.238-0.022
			c-0.031-0.256-0.047-0.513-0.047-0.769c0-0.072,0.006-0.16,0.016-0.263c0.011-0.103,0.025-0.212,0.047-0.331
			c0.02-0.117,0.043-0.231,0.069-0.346c0.024-0.112,0.048-0.215,0.068-0.308c-0.092,0.216-0.229,0.45-0.408,0.7
			c-0.179,0.252-0.397,0.489-0.653,0.715c-0.257,0.228-0.544,0.413-0.861,0.562c-0.318,0.149-0.667,0.224-1.046,0.224
			c-0.677,0-1.189-0.229-1.538-0.684c-0.349-0.457-0.523-1.095-0.523-1.916c0-0.697,0.11-1.383,0.331-2.054
			c0.22-0.671,0.545-1.271,0.976-1.799c0.433-0.529,0.969-0.954,1.608-1.277c0.641-0.324,1.382-0.485,2.224-0.485
			c0.316,0,0.655,0.028,1.014,0.085c0.36,0.056,0.646,0.126,0.861,0.208L285.217,74.484z M284.878,70.748
			c-0.276-0.072-0.63-0.107-1.062-0.107c-0.521,0-1.013,0.114-1.468,0.346c-0.457,0.23-0.854,0.551-1.192,0.961
			c-0.339,0.41-0.606,0.893-0.8,1.446c-0.195,0.554-0.293,1.154-0.293,1.8c0,0.585,0.108,1.043,0.323,1.376
			c0.216,0.334,0.527,0.501,0.938,0.501c0.381,0,0.741-0.125,1.084-0.369c0.345-0.246,0.655-0.574,0.932-0.984
			c0.277-0.41,0.516-0.882,0.715-1.415c0.201-0.533,0.357-1.087,0.471-1.663L284.878,70.748z"/>
		<path fill="#414042" d="M289.478,77.809c-0.112,0-0.229-0.003-0.346-0.009c-0.118-0.005-0.203-0.014-0.255-0.022l-1.277-7.846
			c0.093-0.021,0.175-0.032,0.246-0.039c0.072-0.005,0.154-0.006,0.246-0.006c0.217,0,0.416,0.015,0.601,0.045l1.077,7.245
			l2.754-6.106c0.103-0.216,0.18-0.428,0.229-0.638c0.052-0.211,0.078-0.357,0.078-0.439v-0.062c0.185-0.03,0.358-0.045,0.522-0.045
			c0.195,0,0.386,0.015,0.57,0.045v0.062c0,0.164-0.026,0.328-0.078,0.492c-0.051,0.164-0.147,0.396-0.291,0.693l-3.816,8.245
			c-0.205,0.441-0.407,0.799-0.606,1.075c-0.2,0.278-0.407,0.495-0.615,0.655c-0.211,0.158-0.425,0.268-0.64,0.329
			c-0.214,0.063-0.445,0.094-0.691,0.094c-0.328,0-0.646-0.047-0.954-0.139c0-0.175,0.022-0.339,0.069-0.492
			c0.047-0.154,0.109-0.277,0.191-0.369c0.103,0.03,0.219,0.056,0.346,0.076c0.129,0.021,0.266,0.03,0.409,0.03
			c0.153,0,0.3-0.021,0.438-0.068c0.14-0.046,0.283-0.144,0.431-0.292c0.149-0.149,0.304-0.36,0.462-0.631
			c0.159-0.271,0.341-0.633,0.548-1.084L289.478,77.809z"/>
		<path fill="#414042" d="M296.522,73.933c-0.154-0.062-0.321-0.138-0.5-0.225c-0.18-0.086-0.346-0.203-0.499-0.353
			c-0.154-0.149-0.283-0.333-0.386-0.547c-0.103-0.215-0.153-0.481-0.153-0.8c0-0.687,0.267-1.234,0.8-1.646
			c0.533-0.41,1.271-0.615,2.215-0.615c0.481,0,0.9,0.055,1.254,0.161c0.354,0.108,0.602,0.204,0.747,0.286
			c-0.053,0.153-0.108,0.297-0.17,0.431c-0.062,0.133-0.134,0.271-0.216,0.414c-0.144-0.071-0.372-0.155-0.686-0.253
			c-0.312-0.099-0.663-0.146-1.053-0.146c-1.21,0-1.815,0.421-1.815,1.26c0,0.31,0.09,0.553,0.27,0.731
			c0.179,0.18,0.5,0.361,0.961,0.546l0.154,0.062c0.205,0.082,0.42,0.172,0.647,0.27c0.224,0.099,0.432,0.223,0.622,0.377
			c0.189,0.153,0.346,0.341,0.469,0.561c0.123,0.222,0.185,0.495,0.185,0.823c0,0.482-0.088,0.893-0.261,1.23
			c-0.176,0.339-0.411,0.615-0.709,0.831c-0.297,0.215-0.643,0.375-1.038,0.478c-0.395,0.103-0.817,0.153-1.269,0.153
			c-0.472,0-0.905-0.039-1.3-0.115c-0.396-0.076-0.695-0.167-0.9-0.27c0.051-0.349,0.153-0.65,0.309-0.907
			c0.103,0.052,0.233,0.1,0.393,0.146c0.158,0.046,0.327,0.084,0.507,0.114c0.179,0.031,0.356,0.058,0.53,0.078
			c0.175,0.019,0.339,0.03,0.492,0.03c0.677,0,1.203-0.112,1.578-0.338c0.373-0.226,0.561-0.621,0.561-1.184
			c0-0.412-0.109-0.709-0.331-0.894c-0.221-0.185-0.53-0.354-0.932-0.507L296.522,73.933z"/>
	</g>
</g>
<g>
</g>
<g>
</g>
<g>
</g>
<g>
</g>
<g>
</g>
<g>
</g>
</svg>
