<?xml version="1.0" encoding="utf-8"?>
<!-- Generator: Adobe Illustrator 16.0.0, SVG Export Plug-In . SVG Version: 6.00 Build 0)  -->
<!DOCTYPE svg PUBLIC "-//W3C//DTD SVG 1.1//EN" "http://www.w3.org/Graphics/SVG/1.1/DTD/svg11.dtd">
<svg version="1.1" id="Layer_1" xmlns="http://www.w3.org/2000/svg" xmlns:xlink="http://www.w3.org/1999/xlink" x="0px" y="0px"
	 width="260px" height="260px" viewBox="0 0 260 260" enable-background="new 0 0 260 260" xml:space="preserve">
<g>
	<circle fill="#455772" cx="130" cy="130" r="130"/>
	<g>
		<path fill="#FFFFFF" d="M90.559,198.912c-5.526,0-9.863-1.676-12.891-4.979c-4.285-4.679-4.172-10.785-4.088-12.143v-9.421
			c0-9.274-1.651-13.802-3.435-17.312c-4.766-9.369-4.462-22.34-4.419-23.627c0.031-18.41,11.764-26.58,22.42-29.424
			c-10.197-3.624-17.518-13.371-17.518-24.795c0-14.503,11.8-26.303,26.305-26.303c14.503,0,26.303,11.8,26.303,26.303
			c0,11.424-7.32,21.171-17.516,24.795c10.656,2.844,22.389,11.014,22.42,29.424c0.043,1.287,0.345,14.258-4.421,23.627
			c-1.783,3.51-3.435,8.035-3.435,17.312v9.421c0.085,1.357,0.197,7.464-4.087,12.141c-3.027,3.305-7.364,4.979-12.892,4.979
			L90.559,198.912L90.559,198.912z"/>
		<path fill="#2F3E54" d="M96.934,54.912c12.318,0,22.303,9.985,22.303,22.303c0,12.318-9.984,22.304-22.303,22.304
			s-22.305-9.985-22.305-22.304C74.629,64.897,84.615,54.912,96.934,54.912 M96.934,104.757c3.176,0.058,27.207,1.341,27.207,26.75
			c0,0,0.51,12.899-3.986,21.74c-2.211,4.351-3.869,9.563-3.869,19.124v9.563c0,0,1.139,12.979-12.979,12.979H90.559
			c-14.115,0-12.979-12.979-12.979-12.979v-9.563c0-9.563-1.658-14.773-3.869-19.124c-4.496-8.84-3.984-21.74-3.984-21.74
			C69.727,106.098,93.756,104.814,96.934,104.757 M96.934,46.912c-16.71,0-30.305,13.594-30.305,30.303
			c0,9.869,4.741,18.651,12.067,24.188c-9.079,4.822-16.92,13.965-16.97,29.955c-0.072,2.172-0.28,15.424,4.854,25.518
			c1.558,3.064,3,7.063,3,15.497v9.336c-0.096,2.039-0.028,9.288,5.139,14.929c2.624,2.863,7.502,6.276,15.84,6.276h12.748
			c8.34,0,13.218-3.414,15.841-6.276c5.167-5.641,5.233-12.89,5.138-14.93v-9.335c0-8.435,1.442-12.433,3.001-15.499
			c5.132-10.092,4.926-23.342,4.854-25.516c-0.048-15.991-7.891-25.131-16.971-29.955c7.324-5.537,12.066-14.319,12.066-24.188
			C127.236,60.506,113.643,46.912,96.934,46.912L96.934,46.912z"/>
	</g>
	<g>
		<path fill="#FFFFFF" d="M153.672,198.912c-5.21,0-9.304-1.585-12.168-4.712c-4.038-4.407-3.947-10.153-3.867-11.464v-4.728h-1.145
			c-3.2,0-5.682-0.993-7.377-2.954c-2.813-3.252-2.172-7.648-1.789-10.273c0.049-0.334,0.094-0.637,0.121-0.895l2.915-28.357
			c0.238-16.445,10.565-24.008,20.221-26.828c-9.103-3.639-15.55-12.546-15.55-22.932c0-13.609,11.072-24.682,24.682-24.682
			c13.61,0,24.682,11.072,24.682,24.682c0,10.412-6.479,19.339-15.617,22.959c9.658,2.843,19.92,10.409,20.156,26.799l2.918,28.361
			c0.025,0.26,0.07,0.563,0.119,0.898c0.383,2.625,1.021,7.02-1.791,10.27c-1.695,1.959-4.176,2.952-7.371,2.952h-1.149v4.728
			c0.08,1.311,0.171,7.057-3.867,11.464c-2.864,3.127-6.958,4.712-12.168,4.712H153.672z"/>
		<path fill="#2F3E54" d="M159.715,65.088c11.422,0,20.682,9.26,20.682,20.682c0,11.423-9.26,20.683-20.682,20.683
			s-20.682-9.26-20.682-20.683C139.033,74.348,148.293,65.088,159.715,65.088 M159.715,111.31
			c2.93,0.054,24.998,1.234,25.223,24.448c0.424,4.107,1.265,12.279,2.937,28.541c0.278,2.725,2.217,9.711-5.063,9.711h-0.002
			h-5.146v8.867c0,0,1.055,12.035-12.035,12.035h-11.953c-13.09,0-12.035-12.035-12.035-12.035v-8.867h-5.145
			c-0.001,0-0.002,0-0.003,0c-7.28,0-5.345-6.986-5.063-9.711c0.086-0.828,0.168-1.629,0.248-2.414l0.129-1.258
			c0.043-0.422,0.086-0.836,0.129-1.244l0.258-2.516c0.072-0.697,0.144-1.377,0.209-2.035l0.396-3.832
			c0.09-0.865,0.174-1.689,0.256-2.479l0.074-0.728c0.063-0.623,0.125-1.224,0.185-1.799l0.086-0.824
			c0.037-0.375,0.076-0.735,0.11-1.09l0.168-1.627c0.029-0.291,0.06-0.576,0.089-0.851l0.014-0.137
			c0.149-1.469,0.279-2.717,0.389-3.781l0.131-1.272c0.023-0.229,0.045-0.449,0.066-0.658c0.229-23.212,22.293-24.393,25.223-24.446
			c0.021,0,0.045,0.001,0.066,0.002C159.67,111.311,159.695,111.31,159.715,111.31 M159.715,57.088
			c-15.814,0-28.682,12.866-28.682,28.682c0,8.997,4.162,17.039,10.664,22.302c-8.143,4.572-15.072,12.944-15.332,27.225
			l-0.002,0.018l-0.029,0.291l-0.13,1.267l-0.116,1.125l-0.272,2.659l-0.013,0.127c-0.03,0.281-0.061,0.572-0.091,0.871
			l-0.166,1.607l-0.052,0.512l-0.063,0.611l-0.082,0.783l-0.07,0.686l-0.116,1.145l-0.073,0.712l-0.124,1.207l-0.13,1.259
			l-0.396,3.84c-0.067,0.668-0.137,1.34-0.208,2.029l-0.259,2.523l-0.13,1.25l-0.128,1.252l-0.247,2.404
			c-0.022,0.213-0.062,0.459-0.101,0.731c-0.418,2.866-1.287,8.831,2.722,13.466c1.392,1.607,3.76,3.469,7.547,4.107v0.881
			c-0.089,1.988-0.001,8.875,4.919,14.242c2.512,2.742,7.172,6.011,15.116,6.011h11.953c7.944,0,12.604-3.269,15.117-6.011
			c4.919-5.367,5.007-12.254,4.918-14.242v-0.881c3.786-0.641,6.155-2.498,7.547-4.105c4.008-4.633,3.142-10.595,2.726-13.461
			c-0.041-0.271-0.08-0.52-0.102-0.729l-0.708-6.895c-1.171-11.384-1.824-17.744-2.19-21.301
			c-0.261-14.231-7.146-22.593-15.254-27.174c6.532-5.263,10.719-13.324,10.719-22.346
			C188.396,69.954,175.529,57.088,159.715,57.088L159.715,57.088z"/>
	</g>
	<g>
		<g>
			<path fill="#FFFFFF" d="M201.51,198.912c-4.639,0-7.334-1.881-8.779-3.456c-2.879-3.142-2.887-7.196-2.832-8.274v-5.484
				c0-5.092-0.881-7.528-1.834-9.403c-2.942-5.787-2.813-13.431-2.771-14.637c0.026-9.638,5.058-14.884,10.615-17.468
				c-4.658-3.053-7.74-8.319-7.74-14.293c0-9.417,7.662-17.078,17.08-17.078c9.417,0,17.078,7.661,17.078,17.078
				c0,5.974-3.082,11.241-7.739,14.293c5.557,2.584,10.588,7.832,10.614,17.468c0.041,1.206,0.172,8.85-2.771,14.638
				c-0.953,1.875-1.836,4.311-1.836,9.402v5.484c0.055,1.08,0.047,5.133-2.83,8.273c-1.445,1.577-4.141,3.457-8.779,3.457H201.51
				L201.51,198.912z"/>
			<path fill="#2F3E54" d="M205.248,112.817c7.223,0,13.078,5.855,13.078,13.078c0,7.224-5.855,13.08-13.078,13.08
				c-7.225,0-13.08-5.855-13.08-13.08C192.168,118.673,198.023,112.817,205.248,112.817 M205.248,142.046
				c1.861,0.035,15.953,0.786,15.953,15.687c0,0,0.299,7.564-2.336,12.75c-1.297,2.55-2.27,5.605-2.27,11.215v5.605
				c0,0,0.668,7.609-7.609,7.609h-7.478c-8.276,0-7.61-7.609-7.61-7.609v-5.605c0-5.608-0.974-8.665-2.269-11.215
				c-2.637-5.186-2.338-12.75-2.338-12.75C189.293,142.832,203.385,142.081,205.248,142.046 M205.248,104.817
				c-11.624,0-21.08,9.456-21.08,21.078c0,5.253,1.932,10.063,5.121,13.757c-4.703,3.871-7.958,9.798-7.996,17.936
				c-0.047,1.58-0.123,9.973,3.207,16.521c0.676,1.33,1.398,3.127,1.398,7.588v5.39c-0.078,1.812,0.086,6.931,3.883,11.072
				c1.986,2.169,5.636,4.754,11.729,4.754h7.477c6.095,0,9.742-2.586,11.729-4.755c3.795-4.143,3.958-9.262,3.882-11.072v-5.389
				c0-4.463,0.723-6.256,1.399-7.588c3.328-6.551,3.252-14.94,3.205-16.521c-0.038-8.138-3.292-14.063-7.995-17.936
				c3.189-3.694,5.12-8.504,5.12-13.757C226.326,114.273,216.87,104.817,205.248,104.817L205.248,104.817z"/>
		</g>
		<g>
			<path fill="#FFFFFF" d="M51.018,198.912c-4.639,0-7.335-1.881-8.78-3.456c-2.878-3.144-2.887-7.196-2.832-8.274v-5.484
				c0-5.092-0.881-7.528-1.834-9.403c-2.943-5.787-2.813-13.431-2.771-14.637c0.026-9.638,5.058-14.884,10.616-17.468
				c-4.658-3.053-7.741-8.319-7.741-14.293c0-9.417,7.663-17.078,17.081-17.078c9.417,0,17.078,7.661,17.078,17.078
				c0,5.974-3.082,11.241-7.739,14.293c5.557,2.584,10.588,7.832,10.614,17.468c0.041,1.206,0.172,8.85-2.77,14.638
				c-0.954,1.875-1.836,4.311-1.836,9.402v5.484c0.055,1.08,0.047,5.133-2.83,8.273c-1.445,1.577-4.141,3.457-8.779,3.457H51.018
				L51.018,198.912z"/>
			<path fill="#2F3E54" d="M54.756,112.817c7.223,0,13.078,5.855,13.078,13.078c0,7.224-5.855,13.08-13.078,13.08
				c-7.225,0-13.081-5.855-13.081-13.08C41.675,118.673,47.531,112.817,54.756,112.817 M54.756,142.046
				c1.861,0.035,15.953,0.786,15.953,15.687c0,0,0.299,7.564-2.336,12.75c-1.297,2.55-2.27,5.605-2.27,11.215v5.605
				c0,0,0.668,7.609-7.609,7.609h-7.477c-8.278,0-7.612-7.609-7.612-7.609v-5.605c0-5.608-0.973-8.665-2.268-11.215
				c-2.637-5.186-2.338-12.75-2.338-12.75C38.8,142.832,52.893,142.081,54.756,142.046 M54.756,104.817
				c-11.624,0-21.081,9.456-21.081,21.078c0,5.253,1.931,10.063,5.121,13.757c-4.704,3.871-7.958,9.798-7.996,17.936
				c-0.047,1.58-0.124,9.973,3.207,16.521c0.676,1.33,1.398,3.127,1.398,7.588v5.39c-0.077,1.812,0.087,6.931,3.883,11.072
				c1.987,2.169,5.635,4.754,11.729,4.754h7.477c6.094,0,9.741-2.586,11.729-4.755c3.795-4.143,3.958-9.262,3.881-11.071v-5.39
				c0-4.463,0.723-6.256,1.4-7.588c3.328-6.551,3.252-14.94,3.205-16.521c-0.038-8.138-3.292-14.063-7.995-17.936
				c3.189-3.694,5.12-8.504,5.12-13.757C75.834,114.273,66.378,104.817,54.756,104.817L54.756,104.817z"/>
		</g>
		<g>
			<path fill="#FFFFFF" d="M126.264,198.912c-4.639,0-7.334-1.881-8.779-3.456c-2.879-3.142-2.887-7.196-2.832-8.274v-5.484
				c0-5.092-0.882-7.528-1.834-9.403c-2.943-5.787-2.813-13.431-2.771-14.637c0.026-9.638,5.058-14.884,10.615-17.468
				c-4.658-3.053-7.74-8.319-7.74-14.293c0-9.417,7.662-17.078,17.08-17.078c9.417,0,17.078,7.661,17.078,17.078
				c0,5.974-3.082,11.241-7.739,14.293c5.557,2.584,10.588,7.832,10.614,17.468c0.041,1.206,0.172,8.85-2.771,14.638
				c-0.953,1.875-1.836,4.311-1.836,9.402v5.484c0.055,1.08,0.047,5.133-2.83,8.273c-1.444,1.577-4.141,3.457-8.778,3.457H126.264
				L126.264,198.912z"/>
			<path fill="#2F3E54" d="M130.002,112.817c7.223,0,13.078,5.855,13.078,13.078c0,7.224-5.855,13.08-13.078,13.08
				c-7.225,0-13.08-5.855-13.08-13.08C116.922,118.673,122.777,112.817,130.002,112.817 M130.002,142.046
				c1.861,0.035,15.953,0.786,15.953,15.687c0,0,0.299,7.564-2.336,12.75c-1.297,2.55-2.27,5.605-2.27,11.215v5.605
				c0,0,0.668,7.609-7.609,7.609h-7.477c-8.277,0-7.611-7.609-7.611-7.609v-5.605c0-5.608-0.973-8.665-2.268-11.215
				c-2.637-5.186-2.338-12.75-2.338-12.75C114.047,142.832,128.139,142.081,130.002,142.046 M130.002,104.817
				c-11.624,0-21.08,9.456-21.08,21.078c0,5.253,1.932,10.063,5.121,13.757c-4.703,3.871-7.958,9.798-7.996,17.936
				c-0.047,1.58-0.123,9.973,3.207,16.521c0.676,1.33,1.398,3.127,1.398,7.588v5.39c-0.077,1.812,0.087,6.931,3.883,11.072
				c1.987,2.169,5.636,4.754,11.729,4.754h7.477c6.094,0,9.741-2.586,11.729-4.755c3.795-4.143,3.957-9.262,3.881-11.072v-5.389
				c0-4.463,0.723-6.256,1.399-7.588c3.328-6.551,3.252-14.94,3.205-16.521c-0.038-8.138-3.292-14.063-7.995-17.936
				c3.189-3.694,5.12-8.504,5.12-13.757C151.08,114.273,141.624,104.817,130.002,104.817L130.002,104.817z"/>
		</g>
	</g>
</g>
</svg>
